<svg width="35" height="35" viewBox="0 0 35 35" fill="none" xmlns="http://www.w3.org/2000/svg">
<circle cx="17.5" cy="17.5" r="17.5" fill="#C4C4C4"/>
<path d="M20.6875 9H14.3125C11.3789 9 9 11.3789 9 14.3125V20.6875C9 23.6211 11.3789 26 14.3125 26H20.6875C23.6211 26 26 23.6211 26 20.6875V14.3125C26 11.3789 23.6211 9 20.6875 9ZM24.4062 20.6875C24.4062 22.7381 22.7381 24.4062 20.6875 24.4062H14.3125C12.2619 24.4062 10.5938 22.7381 10.5938 20.6875V14.3125C10.5938 12.2619 12.2619 10.5938 14.3125 10.5938H20.6875C22.7381 10.5938 24.4062 12.2619 24.4062 14.3125V20.6875Z" fill="#272830"/>
<path d="M17.5 13.25C15.1529 13.25 13.25 15.1529 13.25 17.5C13.25 19.8471 15.1529 21.75 17.5 21.75C19.8471 21.75 21.75 19.8471 21.75 17.5C21.75 15.1529 19.8471 13.25 17.5 13.25ZM17.5 20.1562C16.0359 20.1562 14.8438 18.9641 14.8438 17.5C14.8438 16.0348 16.0359 14.8438 17.5 14.8438C18.9641 14.8438 20.1562 16.0348 20.1562 17.5C20.1562 18.9641 18.9641 20.1562 17.5 20.1562Z" fill="#272830"/>
<path d="M22.0688 13.4976C22.3815 13.4976 22.6351 13.244 22.6351 12.9313C22.6351 12.6185 22.3815 12.365 22.0688 12.365C21.756 12.365 21.5024 12.6185 21.5024 12.9313C21.5024 13.244 21.756 13.4976 22.0688 13.4976Z" fill="#FFC107"/>
</svg>
