<svg width="35" height="35" viewBox="0 0 35 35" fill="none" xmlns="http://www.w3.org/2000/svg">
<circle cx="17.5" cy="17.5" r="17.5" fill="#C4C4C4"/>
<path d="M12.8016 14.3125H9V26H12.8016V14.3125Z" fill="#272830"/>
<path d="M23.1568 14.4496C23.1164 14.4368 23.0781 14.423 23.0356 14.4113C22.9846 14.3996 22.9336 14.3901 22.8816 14.3816C22.6797 14.3412 22.4587 14.3125 22.1994 14.3125C19.9831 14.3125 18.5774 15.9243 18.1141 16.5469V14.3125H14.3125V26H18.1141V19.625C18.1141 19.625 20.9871 15.6236 22.1994 18.5625C22.1994 21.1858 22.1994 26 22.1994 26H26V18.1131C26 16.3472 24.7898 14.8756 23.1568 14.4496Z" fill="#272830"/>
<path d="M10.8594 12.7188C11.8863 12.7188 12.7188 11.8863 12.7188 10.8594C12.7188 9.83247 11.8863 9 10.8594 9C9.83247 9 9 9.83247 9 10.8594C9 11.8863 9.83247 12.7188 10.8594 12.7188Z" fill="#272830"/>
</svg>
