<svg width="35" height="35" viewBox="0 0 35 35" fill="none" xmlns="http://www.w3.org/2000/svg">
<circle cx="17.5" cy="17.5" r="17.5" fill="#C4C4C4"/>
<g clip-path="url(#clip0)">
<path d="M26 12.2289C25.3678 12.5063 24.6942 12.6901 23.9919 12.7793C24.7144 12.3479 25.2658 11.6701 25.5251 10.853C24.8514 11.2546 24.1077 11.5383 23.3151 11.6966C22.6754 11.0156 21.7638 10.5938 20.7693 10.5938C18.8398 10.5938 17.2864 12.1599 17.2864 14.0798C17.2864 14.3561 17.3098 14.6217 17.3672 14.8746C14.4697 14.7332 11.9059 13.3446 10.1836 11.2291C9.88294 11.7508 9.70656 12.3479 9.70656 12.9908C9.70656 14.1978 10.3281 15.2677 11.2546 15.8871C10.6947 15.8765 10.1454 15.7139 9.68 15.4579C9.68 15.4685 9.68 15.4823 9.68 15.4961C9.68 17.1897 10.8881 18.5965 12.4722 18.9206C12.1886 18.9981 11.8794 19.0353 11.5585 19.0353C11.3354 19.0353 11.1101 19.0226 10.8987 18.9758C11.3503 20.356 12.6316 21.3707 14.1553 21.4036C12.9695 22.3312 11.4639 22.8901 9.83406 22.8901C9.54825 22.8901 9.27412 22.8773 9 22.8422C10.5438 23.8378 12.3734 24.4062 14.3465 24.4062C20.7597 24.4062 24.266 19.0938 24.266 14.4889C24.266 14.3348 24.2607 14.1861 24.2533 14.0384C24.9449 13.5475 25.5261 12.9344 26 12.2289Z" fill="#272830"/>
</g>
<defs>
<clipPath id="clip0">
<rect x="9" y="9" width="17" height="17" fill="white"/>
</clipPath>
</defs>
</svg>
