<svg width="16" height="20" viewBox="0 0 16 20" fill="none" xmlns="http://www.w3.org/2000/svg">
<path d="M15.0833 7.5H13.8333V5.83332C13.8333 2.6168 11.2166 0 8 0C4.78344 0 2.16668 2.6168 2.16668 5.83332V7.5H0.91668C0.686367 7.5 0.5 7.68637 0.5 7.91668V18.3334C0.5 19.2525 1.24746 20 2.16668 20H13.8334C14.7525 20 15.5 19.2525 15.5 18.3333V7.91668C15.5 7.68637 15.3136 7.5 15.0833 7.5ZM3 5.83332C3 3.07617 5.24285 0.83332 8 0.83332C10.7571 0.83332 13 3.07617 13 5.83332V7.5H12.1667V5.83332C12.1667 3.53594 10.2974 1.66664 8 1.66664C5.70262 1.66664 3.83332 3.53598 3.83332 5.83332V7.5H3V5.83332ZM11.3333 5.83332V7.5H4.66668V5.83332C4.66668 3.99535 6.16203 2.5 8 2.5C9.83797 2.5 11.3333 3.99535 11.3333 5.83332ZM14.6667 18.3333C14.6667 18.7927 14.2927 19.1666 13.8334 19.1666H2.16668C1.7073 19.1666 1.33336 18.7927 1.33336 18.3333V8.33332H14.6667V18.3333Z" fill="#39A0ED"/>
</svg>
