<svg width="30" height="30" viewBox="0 0 30 30" fill="none" xmlns="http://www.w3.org/2000/svg">
<path d="M29.2276 22.127L25.4981 18.3975C24.4699 17.3694 22.7968 17.3694 21.7687 18.3975L20.0735 20.0927C19.2946 20.8716 18.0271 20.8714 17.2484 20.093L9.90075 12.7391C9.11998 11.9583 9.11986 10.6946 9.90075 9.91372C10.1738 9.64067 10.9578 8.85663 11.5959 8.21854C12.6196 7.19491 12.6339 5.52704 11.5949 4.48817L7.86648 0.771446C6.83828 -0.256699 5.16525 -0.256699 4.1398 0.768751C3.37245 1.52942 3.12495 1.77481 2.78089 2.11588C-0.926933 5.82364 -0.926933 11.8566 2.78071 15.5643L14.4228 27.2125C18.1393 30.929 24.1546 30.9293 27.8714 27.2125L29.2276 25.8563C30.2558 24.8281 30.2558 23.1552 29.2276 22.127ZM5.38023 2.01457C5.72294 1.67186 6.28052 1.6718 6.62435 2.01551L10.3528 5.73223C10.6963 6.07577 10.6963 6.63176 10.3528 6.97536L9.73117 7.59692L4.76183 2.62758L5.38023 2.01457ZM15.6662 25.9695L4.02401 14.3212C1.15538 11.4526 0.9977 6.94817 3.53909 3.89116L8.49402 8.84608C7.19207 10.322 7.24633 12.571 8.65732 13.982L16.0048 21.3356C16.0048 21.3356 16.0049 21.3358 16.005 21.3358C17.4145 22.7454 19.6634 22.8031 21.1411 21.4994L26.0961 26.4545C23.0489 28.9915 18.5546 28.8579 15.6662 25.9695ZM27.9845 24.6132L27.3629 25.2348L22.3903 20.2622L23.0118 19.6406C23.3546 19.2979 23.9122 19.2979 24.255 19.6406L27.9845 23.3701C28.3272 23.7129 28.3272 24.2706 27.9845 24.6132Z" fill="#39A0ED"/>
</svg>
