<svg width="30" height="30" viewBox="0 0 30 30" fill="none" xmlns="http://www.w3.org/2000/svg">
<path d="M24.043 9.375C21.4594 9.375 19.3555 7.27249 19.3555 4.6875C19.3555 2.10251 21.4594 0 24.043 0C26.6268 0 28.7305 2.10251 28.7305 4.6875C28.7305 7.27249 26.6268 9.375 24.043 9.375ZM24.043 1.875C22.493 1.875 21.2305 3.13614 21.2305 4.6875C21.2305 6.23886 22.493 7.5 24.043 7.5C25.593 7.5 26.8555 6.23886 26.8555 4.6875C26.8555 3.13614 25.593 1.875 24.043 1.875Z" fill="#39A0ED"/>
<path d="M24.043 30C21.4594 30 19.3555 27.8975 19.3555 25.3125C19.3555 22.7275 21.4594 20.625 24.043 20.625C26.6268 20.625 28.7305 22.7275 28.7305 25.3125C28.7305 27.8975 26.6268 30 24.043 30ZM24.043 22.5C22.493 22.5 21.2305 23.7611 21.2305 25.3125C21.2305 26.8639 22.493 28.125 24.043 28.125C25.593 28.125 26.8555 26.8639 26.8555 25.3125C26.8555 23.7611 25.593 22.5 24.043 22.5Z" fill="#39A0ED"/>
<path d="M5.91797 19.6875C3.33412 19.6875 1.23047 17.585 1.23047 15C1.23047 12.415 3.33412 10.3125 5.91797 10.3125C8.50182 10.3125 10.6055 12.415 10.6055 15C10.6055 17.585 8.50182 19.6875 5.91797 19.6875ZM5.91797 12.1875C4.36798 12.1875 3.10547 13.4486 3.10547 15C3.10547 16.5514 4.36798 17.8125 5.91797 17.8125C7.46796 17.8125 8.73047 16.5514 8.73047 15C8.73047 13.4486 7.46796 12.1875 5.91797 12.1875Z" fill="#39A0ED"/>
<path d="M9.18245 14.0874C8.85606 14.0874 8.5386 13.9174 8.3674 13.615C8.11105 13.165 8.26738 12.5924 8.71736 12.3363L20.3162 5.72364C20.7648 5.465 21.3386 5.62247 21.5936 6.07382C21.8499 6.52381 21.6936 7.09624 21.2436 7.35259L9.64479 13.965C9.49853 14.0474 9.33992 14.0874 9.18245 14.0874Z" fill="#39A0ED"/>
<path d="M20.7786 24.4C20.6212 24.4 20.4623 24.3599 20.3161 24.2764L8.71726 17.6637C8.26728 17.4076 8.11118 16.835 8.3673 16.385C8.62227 15.9339 9.19494 15.7775 9.64492 16.035L21.2435 22.6474C21.6935 22.9038 21.8498 23.4762 21.5937 23.9262C21.4211 24.2299 21.1037 24.4 20.7786 24.4Z" fill="#39A0ED"/>
</svg>
