<svg width="30" height="30" viewBox="0 0 30 30" fill="none" xmlns="http://www.w3.org/2000/svg">
<path d="M15.0053 0.00317399C9.00344 0.00229917 3.57907 3.57987 1.21675 9.09728L1.02978 9.15927L1.10227 9.37672C-2.00808 17.048 1.68921 25.7882 9.36049 28.8986C11.1522 29.6251 13.0675 29.998 15.0009 29.9969C23.2834 29.9982 29.9987 23.2848 30 15.0023C30.0012 6.71977 23.2879 0.00436124 15.0053 0.00317399ZM26.7687 22.5612L25.9986 21.7916V19.999C25.9995 19.9217 25.9823 19.8452 25.9486 19.7756L23.999 15.8819V14.0003C23.999 13.8332 23.9156 13.6771 23.7765 13.5843L22.2769 12.5846C22.1593 12.5061 22.014 12.481 21.8769 12.5156L20.0403 12.9745L16.9555 11.6507L16.5311 8.67737L17.7073 7.50161H20.2323L21.0821 8.77885C21.1588 8.8937 21.2798 8.97174 21.416 8.9943L24.4154 9.4942C24.4958 9.50769 24.5781 9.50113 24.6554 9.4752L27.4178 8.55439C29.7347 13.0007 29.4869 18.3484 26.7687 22.5612ZM24.7069 4.92915L23.894 5.47104L21.628 5.01763L20.1578 4.52823C20.0678 4.49768 19.971 4.4938 19.8789 4.51723L18.0202 4.98164L17.2054 4.71019L17.8093 3.50245H19.4999C19.5775 3.50251 19.654 3.48457 19.7234 3.44996L21.453 2.58514C22.6442 3.20688 23.7399 3.99622 24.7069 4.92915ZM9.52551 2.11923L10.7253 2.91907C10.7843 2.95831 10.8509 2.98455 10.9207 2.99605L13.3432 3.39997L13.1068 4.10732L11.8445 4.52873C11.7315 4.56635 11.6356 4.64308 11.5741 4.74519L10.1384 7.13769L7.83237 8.5214L4.43308 9.0068C4.18669 9.0416 4.00348 9.25237 4.00317 9.5012V11.0009C4.00317 11.1335 4.0559 11.2606 4.14963 11.3543L5.00296 12.2076V13.0665L2.92339 11.6797L2.16905 9.41671C3.60425 6.1374 6.23476 3.52794 9.52551 2.11923ZM8.10231 18.5093L5.84278 18.0569L5.00296 16.3818V15.207L6.86557 13.3444L7.55492 14.7236C7.63959 14.8931 7.81287 15.0001 8.00233 15.0001H11.2187L12.5729 17.2571C12.6632 17.4075 12.8258 17.4995 13.0013 17.4995H14.391L14.0411 19.2527L12.1485 21.1453C12.0546 21.2389 12.0017 21.366 12.0015 21.4987V22.7484L10.2019 24.0982C10.076 24.1926 10.0019 24.3407 10.0019 24.4981V26.3037L9.38004 26.0977L8.50223 23.9022V18.9992C8.50229 18.7616 8.33508 18.5568 8.10231 18.5093ZM6.59962 26.194C1.88629 22.658 -0.106979 16.5482 1.61416 10.9129L2.02958 12.1586C2.06457 12.2641 2.13368 12.3549 2.22604 12.4166L4.71802 14.0777L4.14963 14.6466C4.0559 14.7404 4.00317 14.8675 4.00317 15.0001V16.4997C4.0031 16.5773 4.02104 16.6538 4.05565 16.7232L5.05545 18.7228C5.12468 18.8609 5.25384 18.9592 5.40537 18.9892L7.50494 19.4086V23.9982C7.50487 24.0617 7.51693 24.1247 7.54043 24.1836L8.54022 26.6831C8.59496 26.8197 8.70706 26.9252 8.84666 26.9716L10.3463 27.4715C10.3965 27.4885 10.4489 27.4972 10.5018 27.4974C10.7779 27.4974 11.0017 27.2736 11.0017 26.9976V24.748L12.8013 23.3983C12.9272 23.3039 13.0013 23.1557 13.0013 22.9984V21.7057L14.8544 19.8525C14.9241 19.7827 14.9716 19.6938 14.9909 19.5971L15.4908 17.0976C15.5449 16.8269 15.3693 16.5635 15.0985 16.5094C15.0664 16.503 15.0337 16.4997 15.0009 16.4997H13.2842L11.93 14.2427C11.8397 14.0923 11.6771 14.0003 11.5016 14.0003H8.31127L7.45245 12.2771C7.38052 12.1333 7.2438 12.0328 7.08502 12.0072C6.92631 11.9797 6.76428 12.0321 6.65161 12.1471L6.00275 12.7935V12.0007C6.00275 11.8681 5.95001 11.741 5.85628 11.6472L5.00296 10.7939V9.9346L8.07332 9.4962C8.13924 9.48664 8.20267 9.46402 8.25978 9.42971L10.7593 7.93002C10.8294 7.88791 10.8881 7.82917 10.9302 7.75906L12.3349 5.41805L13.6592 4.97614C13.8087 4.92709 13.926 4.8098 13.9751 4.6602L14.475 3.16052C14.5616 2.89838 14.4193 2.61563 14.1572 2.52902C14.133 2.52102 14.1082 2.5149 14.0831 2.51065L11.1897 2.02825L10.6813 1.68932C13.8271 0.665411 17.2342 0.792135 20.2953 2.04675L19.382 2.50265H17.5004C17.31 2.50159 17.1356 2.60882 17.0504 2.7791L16.0507 4.77868C15.9275 5.02575 16.0279 5.32594 16.275 5.4491C16.296 5.4596 16.3178 5.4686 16.3401 5.47603L17.8398 5.97593C17.9298 6.00649 18.0266 6.01036 18.1187 5.98693L19.9773 5.52252L21.3391 5.97593C21.3585 5.98293 21.3786 5.9883 21.399 5.99193L23.8985 6.49182C24.0285 6.51832 24.1637 6.4917 24.2739 6.41784L25.4117 5.659C25.9716 6.28268 26.4749 6.95504 26.9154 7.66808L24.4559 8.48791L21.793 8.044L20.9131 6.72427C20.8209 6.58599 20.6659 6.50263 20.4997 6.50182H17.5004C17.3678 6.50182 17.2407 6.55456 17.1469 6.64829L15.6472 8.14798C15.5359 8.25927 15.4835 8.41655 15.5058 8.57239L16.0057 12.0717C16.0308 12.2447 16.1446 12.392 16.3056 12.4601L19.8049 13.9598C19.9051 14.0032 20.017 14.0121 20.1228 13.9853L21.9079 13.5389L22.9992 14.2677V15.9998C22.9983 16.0772 23.0155 16.1537 23.0492 16.2233L24.9988 20.117V21.9986C24.9988 22.1312 25.0515 22.2583 25.1453 22.352L26.191 23.3983C21.5531 29.5803 12.7816 30.8321 6.59962 26.194Z" fill="#39A0ED"/>
</svg>
