<svg width="50" height="50" viewBox="0 0 50 50" fill="none" xmlns="http://www.w3.org/2000/svg">
<path d="M25 0C11.2152 0 0 11.2152 0 25C0 38.7848 11.2152 50 25 50C38.7848 50 50 38.7848 50 25C50 11.2152 38.7848 0 25 0ZM25 47.9167C12.3637 47.9167 2.0833 37.6363 2.0833 25C2.0833 12.3637 12.3637 2.0833 25 2.0833C37.6363 2.0833 47.9167 12.3637 47.9167 25C47.9167 37.6363 37.6363 47.9167 25 47.9167Z" fill="#343434"/>
<path d="M38.5416 23.9583H26.0416V11.4583C26.0416 10.8825 25.5757 10.4166 24.9999 10.4166C24.4241 10.4166 23.9582 10.8825 23.9582 11.4583V23.9583H11.4582C10.8824 23.9583 10.4165 24.4242 10.4165 25C10.4165 25.5758 10.8824 26.0417 11.4582 26.0417H23.9582V38.5417C23.9582 39.1175 24.4241 39.5834 24.9999 39.5834C25.5757 39.5834 26.0416 39.1175 26.0416 38.5417V26.0417H38.5416C39.1174 26.0417 39.5833 25.5758 39.5833 25C39.5833 24.4242 39.1174 23.9583 38.5416 23.9583Z" fill="#343434"/>
</svg>
