<svg width="18" height="18" viewBox="0 0 18 18" fill="none" xmlns="http://www.w3.org/2000/svg">
<g clip-path="url(#clip0)">
<path d="M16.125 3H1.87499C0.8415 3 0 3.8415 0 4.87502V13.125C0 14.1585 0.8415 15 1.87499 15H16.125C17.1585 15 18 14.1585 18 13.125V4.87502C18 3.8415 17.1585 3 16.125 3ZM17.25 13.125C17.25 13.7453 16.7453 14.25 16.125 14.25H1.87499C1.25473 14.25 0.749988 13.7453 0.749988 13.125V4.87502C0.749988 4.25476 1.25473 3.75002 1.87499 3.75002H16.125C16.7452 3.75002 17.25 4.25476 17.25 4.87502V13.125H17.25Z" fill="#C4C4C4"/>
<path d="M17.625 5.25H0.375012C0.168012 5.25 0 5.41801 0 5.62501V7.87501C0 8.08201 0.168012 8.25002 0.375012 8.25002H17.625C17.832 8.25002 18 8.08201 18 7.87501V5.62501C18 5.41801 17.832 5.25 17.625 5.25ZM17.25 7.5H0.749988V5.99999H17.25V7.5H17.25Z" fill="#C4C4C4"/>
<path d="M7.12501 10.5H2.62501C2.41801 10.5 2.25 10.668 2.25 10.875C2.25 11.082 2.41801 11.25 2.62501 11.25H7.12501C7.33201 11.25 7.50002 11.082 7.50002 10.875C7.50002 10.668 7.33201 10.5 7.12501 10.5Z" fill="#C4C4C4"/>
<path d="M7.12501 12H2.62501C2.41801 12 2.25 12.168 2.25 12.375C2.25 12.582 2.41801 12.75 2.62501 12.75H7.12501C7.33201 12.75 7.50002 12.582 7.50002 12.375C7.49999 12.168 7.33201 12 7.12501 12Z" fill="#C4C4C4"/>
<path d="M14.625 9.75H13.875C13.2547 9.75 12.75 10.2547 12.75 10.875V11.625C12.75 12.2452 13.2547 12.75 13.875 12.75H14.625C15.2453 12.75 15.75 12.2452 15.75 11.625V10.875C15.75 10.2548 15.2453 9.75 14.625 9.75ZM15 11.625C15 11.832 14.832 12 14.625 12H13.875C13.668 12 13.5 11.832 13.5 11.625V10.875C13.5 10.668 13.668 10.5 13.875 10.5H14.625C14.832 10.5 15 10.668 15 10.875V11.625Z" fill="#C4C4C4"/>
</g>
<defs>
<clipPath id="clip0">
<rect width="18" height="18" fill="white"/>
</clipPath>
</defs>
</svg>
