<svg width="30" height="30" viewBox="0 0 30 30" fill="none" xmlns="http://www.w3.org/2000/svg">
<g clip-path="url(#clip0)">
<path d="M30 15C30 19.9524 26 24 21 24C16.0476 24 12 19.9524 12 15C12 10.0476 16 6 20.9524 6C26 6 30 10.0476 30 15Z" fill="#FFB600"/>
<path d="M21 6C25.9524 6 30 10.0476 30 15C30 19.9524 26 24 21 24C16.0476 24 12 19.9524 12 15" fill="#F7981D"/>
<path d="M21 6C25.9524 6 30 10.0476 30 15C30 19.9524 26 24 21 24" fill="#FF8500"/>
<path d="M8.90476 6C4 6.04762 0 10.0476 0 15C0 19.9524 4 24 9 24C11.3333 24 13.4286 23.0952 15.0476 21.6667C15.381 21.381 15.6667 21.0476 15.9524 20.7143H14.0952C13.8571 20.4286 13.619 20.0952 13.4286 19.8095H16.619C16.8095 19.5238 17 19.1905 17.1429 18.8571H12.9048C12.7619 18.5714 12.619 18.2381 12.5238 17.9048H17.4762C17.7619 17 17.9524 16.0476 17.9524 15.0476C17.9524 14.381 17.8571 13.7619 17.7619 13.1429H12.2381C12.2857 12.8095 12.381 12.5238 12.4762 12.1905H17.4286C17.3333 11.8571 17.1905 11.5238 17.0476 11.2381H12.8571C13 10.9048 13.1905 10.619 13.381 10.2857H16.5714C16.381 9.95238 16.1429 9.61905 15.8571 9.33333H14.0952C14.381 9 14.6667 8.71429 15 8.42857C13.4286 6.95238 11.2857 6.09524 8.95238 6.09524C8.95238 6 8.95238 6 8.90476 6Z" fill="#FF5050"/>
<path d="M0 15C0 19.9524 4 24 9 24C11.3333 24 13.4286 23.0952 15.0476 21.6666C15.381 21.3809 15.6667 21.0476 15.9524 20.7143H14.0952C13.8571 20.4285 13.619 20.0952 13.4286 19.8095H16.619C16.8095 19.5238 17 19.1904 17.1429 18.8571H12.9048C12.7619 18.5714 12.619 18.2381 12.5238 17.9047H17.4762C17.7619 17 17.9524 16.0476 17.9524 15.0476C17.9524 14.3809 17.8571 13.7619 17.7619 13.1428H12.2381C12.2857 12.8095 12.381 12.5238 12.4762 12.1905H17.4286C17.3333 11.8571 17.1905 11.5238 17.0476 11.2381H12.8571C13 10.9047 13.1905 10.619 13.381 10.2857H16.5714C16.381 9.95236 16.1429 9.61902 15.8571 9.33331H14.0952C14.381 8.99998 14.6667 8.71426 15 8.42855C13.4286 6.95236 11.2857 6.09521 8.95238 6.09521H8.90476" fill="#E52836"/>
<path d="M8.99953 24C11.3329 24 13.4281 23.0952 15.0472 21.6666C15.3805 21.3809 15.6662 21.0476 15.9519 20.7143H14.0948C13.8567 20.4285 13.6186 20.0952 13.4281 19.8095H16.6186C16.8091 19.5238 16.9995 19.1904 17.1424 18.8571H12.9043C12.7614 18.5714 12.6186 18.2381 12.5233 17.9047H17.4757C17.7614 17 17.9519 16.0476 17.9519 15.0476C17.9519 14.3809 17.8567 13.7619 17.7614 13.1428H12.2376C12.2852 12.8095 12.3805 12.5238 12.4757 12.1905H17.4281C17.3329 11.8571 17.19 11.5238 17.0472 11.2381H12.8567C12.9995 10.9047 13.19 10.619 13.3805 10.2857H16.571C16.3805 9.95236 16.1424 9.61902 15.8567 9.33331H14.0948C14.3805 8.99998 14.6662 8.71426 14.9995 8.42855C13.4281 6.95236 11.2852 6.09521 8.95192 6.09521H8.9043" fill="#CB2026"/>
<path d="M12.1915 17.2857L12.3344 16.4762C12.2867 16.4762 12.1915 16.5238 12.0963 16.5238C11.7629 16.5238 11.7153 16.3333 11.7629 16.2381L12.0486 14.5714H12.5724L12.7153 13.6666H12.2391L12.3344 13.0952H11.382C11.382 13.0952 10.8105 16.2381 10.8105 16.619C10.8105 17.1905 11.1439 17.4285 11.5725 17.4285C11.8582 17.4285 12.0963 17.3333 12.1915 17.2857Z" fill="white"/>
<path d="M12.5234 15.7619C12.5234 17.0953 13.4282 17.4286 14.1901 17.4286C14.9044 17.4286 15.1901 17.2857 15.1901 17.2857L15.3806 16.381C15.3806 16.381 14.8568 16.6191 14.3806 16.6191C13.333 16.6191 13.5234 15.8572 13.5234 15.8572H15.4758C15.4758 15.8572 15.6187 15.2381 15.6187 15C15.6187 14.381 15.2853 13.6191 14.2377 13.6191C13.2377 13.5238 12.5234 14.5714 12.5234 15.7619ZM14.1901 14.381C14.7139 14.381 14.6187 15 14.6187 15.0476H13.5711C13.5711 15 13.6663 14.381 14.1901 14.381Z" fill="white"/>
<path d="M20.2382 17.2857L20.4287 16.2381C20.4287 16.2381 19.9525 16.4761 19.6191 16.4761C18.9525 16.4761 18.6668 15.9523 18.6668 15.3809C18.6668 14.2381 19.2382 13.619 19.9049 13.619C20.381 13.619 20.762 13.9047 20.762 13.9047L20.9049 12.9047C20.9049 12.9047 20.3334 12.6666 19.8096 12.6666C18.7144 12.6666 17.6191 13.619 17.6191 15.4285C17.6191 16.619 18.1906 17.4285 19.3334 17.4285C19.7144 17.4285 20.2382 17.2857 20.2382 17.2857Z" fill="white"/>
<path d="M6.9521 13.5238C6.28544 13.5238 5.80924 13.7143 5.80924 13.7143L5.66639 14.5238C5.66639 14.5238 6.09496 14.3333 6.71401 14.3333C7.04734 14.3333 7.33305 14.3809 7.33305 14.6667C7.33305 14.8571 7.28544 14.9048 7.28544 14.9048C7.28544 14.9048 6.99972 14.9048 6.85686 14.9048C6.04734 14.9048 5.14258 15.2381 5.14258 16.3333C5.14258 17.1905 5.71401 17.3809 6.04734 17.3809C6.71401 17.3809 6.99972 16.9524 7.04734 16.9524L6.99972 17.3333H7.85686L8.23782 14.7143C8.23782 13.5714 7.28544 13.5238 6.9521 13.5238ZM7.14258 15.6667C7.14258 15.8095 7.04734 16.5714 6.47591 16.5714C6.1902 16.5714 6.09496 16.3333 6.09496 16.1905C6.09496 15.9524 6.23782 15.619 6.9521 15.619C7.09496 15.6667 7.14258 15.6667 7.14258 15.6667Z" fill="white"/>
<path d="M9.14211 17.381C9.38021 17.381 10.5707 17.4286 10.5707 16.1429C10.5707 14.9524 9.42783 15.1905 9.42783 14.7143C9.42783 14.4762 9.6183 14.381 9.95164 14.381C10.0945 14.381 10.6183 14.4286 10.6183 14.4286L10.7612 13.5714C10.7612 13.5714 10.4278 13.4762 9.8564 13.4762C9.14211 13.4762 8.42783 13.7619 8.42783 14.7143C8.42783 15.8095 9.6183 15.7143 9.6183 16.1429C9.6183 16.4286 9.28497 16.4762 9.04687 16.4762C8.6183 16.4762 8.18973 16.3333 8.18973 16.3333L8.04688 17.1905C8.09449 17.2857 8.33259 17.381 9.14211 17.381Z" fill="white"/>
<path d="M28.144 12.7618L27.9535 14.0476C27.9535 14.0476 27.5725 13.5714 27.0487 13.5714C26.1916 13.5714 25.4297 14.619 25.4297 15.8571C25.4297 16.619 25.8106 17.4285 26.6202 17.4285C27.1916 17.4285 27.5249 17.0476 27.5249 17.0476L27.4773 17.3809H28.4297L29.144 12.8095L28.144 12.7618ZM27.7154 15.2856C27.7154 15.8095 27.4773 16.4761 26.9535 16.4761C26.6202 16.4761 26.4297 16.1904 26.4297 15.7142C26.4297 14.9523 26.763 14.4761 27.1916 14.4761C27.5249 14.4761 27.7154 14.7142 27.7154 15.2856Z" fill="white"/>
<path d="M1.76218 17.3333L2.33361 13.9047L2.42885 17.3333H3.09552L4.33361 13.9047L3.8098 17.3333H4.8098L5.57171 12.7618H4.00028L3.0479 15.5714L3.00028 12.7618H1.61933L0.857422 17.3333H1.76218Z" fill="white"/>
<path d="M16.5242 17.3333C16.8099 15.7619 16.8575 14.4762 17.5242 14.7143C17.6194 14.0952 17.7623 13.8571 17.8575 13.619C17.8575 13.619 17.8099 13.619 17.667 13.619C17.2385 13.619 16.9051 14.1904 16.9051 14.1904L17.0004 13.6666H16.0956L15.4766 17.3809H16.5242V17.3333Z" fill="white"/>
<path d="M22.4287 13.5238C21.762 13.5238 21.2858 13.7143 21.2858 13.7143L21.143 14.5238C21.143 14.5238 21.5715 14.3333 22.1906 14.3333C22.5239 14.3333 22.8096 14.3809 22.8096 14.6667C22.8096 14.8571 22.762 14.9048 22.762 14.9048C22.762 14.9048 22.4763 14.9048 22.3334 14.9048C21.5239 14.9048 20.6191 15.2381 20.6191 16.3333C20.6191 17.1905 21.1906 17.3809 21.5239 17.3809C22.1906 17.3809 22.4763 16.9524 22.5239 16.9524L22.4763 17.3333H23.3334L23.7144 14.7143C23.762 13.5714 22.762 13.5238 22.4287 13.5238ZM22.6668 15.6667C22.6668 15.8095 22.5715 16.5714 22.0001 16.5714C21.7144 16.5714 21.6191 16.3333 21.6191 16.1905C21.6191 15.9524 21.762 15.619 22.4763 15.619C22.6191 15.6667 22.6191 15.6667 22.6668 15.6667Z" fill="white"/>
<path d="M24.5242 17.3333C24.8099 15.7619 24.8575 14.4762 25.5242 14.7143C25.6194 14.0952 25.7623 13.8571 25.8575 13.619C25.8575 13.619 25.8099 13.619 25.667 13.619C25.2385 13.619 24.9051 14.1904 24.9051 14.1904L25.0004 13.6666H24.0956L23.4766 17.3809H24.5242V17.3333Z" fill="white"/>
<path d="M10.7148 16.619C10.7148 17.1905 11.0482 17.4285 11.4767 17.4285C11.8101 17.4285 12.0958 17.3333 12.191 17.2857L12.3339 16.4762C12.2863 16.4762 12.191 16.5238 12.0958 16.5238C11.7625 16.5238 11.7148 16.3333 11.7625 16.2381L12.0482 14.5714H12.572L12.7148 13.6666H12.2387L12.3339 13.0952" fill="#DCE5E5"/>
<path d="M13 15.7619C13 17.0953 13.4286 17.4286 14.1905 17.4286C14.9048 17.4286 15.1905 17.2857 15.1905 17.2857L15.381 16.381C15.381 16.381 14.8571 16.6191 14.381 16.6191C13.3333 16.6191 13.5238 15.8572 13.5238 15.8572H15.4762C15.4762 15.8572 15.619 15.2381 15.619 15C15.619 14.381 15.2857 13.6191 14.2381 13.6191C13.2381 13.5238 13 14.5714 13 15.7619ZM14.1905 14.381C14.7143 14.381 14.8095 15 14.8095 15.0476H13.5714C13.5714 15 13.6667 14.381 14.1905 14.381Z" fill="#DCE5E5"/>
<path d="M20.2386 17.2857L20.429 16.2381C20.429 16.2381 19.9528 16.4761 19.6195 16.4761C18.9528 16.4761 18.6671 15.9523 18.6671 15.3809C18.6671 14.2381 19.2386 13.619 19.9052 13.619C20.3814 13.619 20.7624 13.9047 20.7624 13.9047L20.9052 12.9047C20.9052 12.9047 20.3338 12.6666 19.81 12.6666C18.7148 12.6666 18.0957 13.619 18.0957 15.4285C18.0957 16.619 18.1909 17.4285 19.3338 17.4285C19.7148 17.4285 20.2386 17.2857 20.2386 17.2857Z" fill="#DCE5E5"/>
<path d="M5.66639 14.5714C5.66639 14.5714 6.09496 14.3809 6.71401 14.3809C7.04734 14.3809 7.33305 14.4285 7.33305 14.7143C7.33305 14.9047 7.28544 14.9524 7.28544 14.9524C7.28544 14.9524 6.99972 14.9524 6.85686 14.9524C6.04734 14.9524 5.14258 15.2857 5.14258 16.3809C5.14258 17.2381 5.71401 17.4285 6.04734 17.4285C6.71401 17.4285 6.99972 17 7.04734 17L6.99972 17.3809H7.85686L8.23782 14.7619C8.23782 13.6666 7.28544 13.619 6.90448 13.619L5.66639 14.5714ZM7.61877 15.6666C7.61877 15.8095 7.04734 16.5714 6.47591 16.5714C6.1902 16.5714 6.09496 16.3333 6.09496 16.1904C6.09496 15.9524 6.23782 15.619 6.9521 15.619C7.09496 15.6666 7.61877 15.6666 7.61877 15.6666Z" fill="#DCE5E5"/>
<path d="M8.0957 17.2857C8.0957 17.2857 8.38142 17.381 9.19094 17.381C9.42904 17.381 10.6195 17.4286 10.6195 16.1429C10.6195 14.9524 9.47666 15.1905 9.47666 14.7143C9.47666 14.4762 9.66713 14.381 10.0005 14.381C10.1433 14.381 10.6671 14.4286 10.6671 14.4286L10.81 13.5714C10.81 13.5714 10.4767 13.4762 9.90523 13.4762C9.19094 13.4762 8.95285 13.7619 8.95285 14.7143C8.95285 15.8095 9.66713 15.7143 9.66713 16.1429C9.66713 16.4286 9.3338 16.4762 9.0957 16.4762" fill="#DCE5E5"/>
<path d="M27.9534 14.0475C27.9534 14.0475 27.5725 13.5714 27.0487 13.5714C26.1915 13.5714 25.9058 14.619 25.9058 15.8571C25.9058 16.619 25.8106 17.4285 26.6201 17.4285C27.1915 17.4285 27.5248 17.0475 27.5248 17.0475L27.4772 17.3809H28.4296L29.1439 12.8094L27.9534 14.0475ZM27.9058 15.2856C27.9058 15.8094 27.4772 16.4761 26.9534 16.4761C26.6201 16.4761 26.4296 16.1904 26.4296 15.7142C26.4296 14.9523 26.7629 14.4761 27.1915 14.4761C27.5248 14.4761 27.9058 14.7142 27.9058 15.2856Z" fill="#DCE5E5"/>
<path d="M1.76218 17.3333L2.33361 13.9047L2.42885 17.3333H3.09552L4.33361 13.9047L3.8098 17.3333H4.8098L5.57171 12.7618H4.38123L3.0479 15.5714L3.00028 12.7618H2.47647L0.857422 17.3333H1.76218Z" fill="#DCE5E5"/>
<path d="M15.5234 17.3333H16.5234C16.8092 15.7619 16.8568 14.4762 17.5234 14.7143C17.6187 14.0952 17.7615 13.8571 17.8568 13.619C17.8568 13.619 17.8092 13.619 17.6663 13.619C17.2377 13.619 16.9044 14.1904 16.9044 14.1904L16.9996 13.6666" fill="#DCE5E5"/>
<path d="M21.143 14.5714C21.143 14.5714 21.5715 14.3809 22.1906 14.3809C22.5239 14.3809 22.8096 14.4285 22.8096 14.7143C22.8096 14.9047 22.762 14.9524 22.762 14.9524C22.762 14.9524 22.4763 14.9524 22.3334 14.9524C21.5239 14.9524 20.6191 15.2857 20.6191 16.3809C20.6191 17.2381 21.1906 17.4285 21.5239 17.4285C22.1906 17.4285 22.4763 17 22.5239 17L22.4763 17.3809H23.3334L23.7144 14.7619C23.7144 13.6666 22.762 13.619 22.381 13.619L21.143 14.5714ZM23.0953 15.6666C23.0953 15.8095 22.5239 16.5714 21.9525 16.5714C21.6668 16.5714 21.5715 16.3333 21.5715 16.1904C21.5715 15.9524 21.7144 15.619 22.4287 15.619C22.6191 15.6666 23.0953 15.6666 23.0953 15.6666Z" fill="#DCE5E5"/>
<path d="M23.5234 17.3333H24.5234C24.8092 15.7619 24.8568 14.4762 25.5234 14.7143C25.6187 14.0952 25.7615 13.8571 25.8568 13.619C25.8568 13.619 25.8092 13.619 25.6663 13.619C25.2377 13.619 24.9044 14.1904 24.9044 14.1904L24.9996 13.6666" fill="#DCE5E5"/>
</g>
<defs>
<clipPath id="clip0">
<rect width="30" height="30" fill="white"/>
</clipPath>
</defs>
</svg>
