<svg width="30" height="30" viewBox="0 0 30 30" fill="none" xmlns="http://www.w3.org/2000/svg">
<g clip-path="url(#clip0)">
<path d="M11 19.3096L12.5238 10.7382H14.9048L13.4286 19.3096H11Z" fill="#3C58BF"/>
<path d="M11 19.3096L12.9524 10.7382H14.9048L13.4286 19.3096H11Z" fill="#293688"/>
<path d="M22.0474 10.8333C21.5712 10.6429 20.8093 10.4524 19.857 10.4524C17.476 10.4524 15.7617 11.6429 15.7617 13.3572C15.7617 14.6429 16.9522 15.3095 17.9046 15.7381C18.857 16.1667 19.1427 16.4524 19.1427 16.8333C19.1427 17.4048 18.3808 17.6905 17.7141 17.6905C16.7617 17.6905 16.2379 17.5476 15.4284 17.2143L15.0951 17.0714L14.7617 19.0238C15.3331 19.2619 16.3808 19.5 17.476 19.5C19.9998 19.5 21.6665 18.3095 21.6665 16.5C21.6665 15.5 21.0474 14.7381 19.6189 14.1191C18.7617 13.6905 18.2379 13.4524 18.2379 13.0238C18.2379 12.6429 18.6665 12.2619 19.6189 12.2619C20.4284 12.2619 20.9998 12.4048 21.4284 12.5953L21.6665 12.6905L22.0474 10.8333Z" fill="#3C58BF"/>
<path d="M22.0474 10.8333C21.5712 10.6429 20.8093 10.4524 19.857 10.4524C17.476 10.4524 16.1903 11.6429 16.1903 13.3572C16.1903 14.6429 16.9522 15.3095 17.9046 15.7381C18.857 16.1667 19.1427 16.4524 19.1427 16.8333C19.1427 17.4048 18.3808 17.6905 17.7141 17.6905C16.7617 17.6905 16.2379 17.5476 15.4284 17.2143L15.0951 17.0714L14.7617 19.0238C15.3331 19.2619 16.3808 19.5 17.476 19.5C19.9998 19.5 21.6665 18.3095 21.6665 16.5C21.6665 15.5 21.0474 14.7381 19.6189 14.1191C18.7617 13.6905 18.2379 13.4524 18.2379 13.0238C18.2379 12.6429 18.6665 12.2619 19.6189 12.2619C20.4284 12.2619 20.9998 12.4048 21.4284 12.5953L21.6665 12.6905L22.0474 10.8333Z" fill="#293688"/>
<path d="M26.1435 10.7382C25.5721 10.7382 25.1435 10.7858 24.9054 11.3572L21.334 19.3096H23.9054L24.3816 17.881H27.4292L27.7149 19.3096H30.0006L28.0006 10.7382H26.1435ZM25.0483 16.4524C25.1911 16.0239 26.0006 13.9286 26.0006 13.9286C26.0006 13.9286 26.1911 13.4048 26.334 13.0715L26.4768 13.881C26.4768 13.881 26.953 16.0239 27.0483 16.5001H25.0483V16.4524Z" fill="#3C58BF"/>
<path d="M26.7149 10.7382C26.1435 10.7382 25.7149 10.7858 25.4768 11.3572L21.334 19.3096H23.9054L24.3816 17.881H27.4292L27.7149 19.3096H30.0006L28.0006 10.7382H26.7149ZM25.0483 16.4524C25.2387 15.9763 26.0006 13.9286 26.0006 13.9286C26.0006 13.9286 26.1911 13.4048 26.334 13.0715L26.4768 13.881C26.4768 13.881 26.953 16.0239 27.0483 16.5001H25.0483V16.4524Z" fill="#293688"/>
<path d="M6.6183 16.7381L6.38021 15.5001C5.95164 14.0715 4.57068 12.5001 3.04688 11.7381L5.18973 19.3572H7.76116L11.6183 10.7858H9.04688L6.6183 16.7381Z" fill="#3C58BF"/>
<path d="M6.6183 16.7381L6.38021 15.5001C5.95164 14.0715 4.57068 12.5001 3.04688 11.7381L5.18973 19.3572H7.76116L11.6183 10.7858H9.52307L6.6183 16.7381Z" fill="#293688"/>
<path d="M0 10.7382L0.428571 10.8334C3.47619 11.5477 5.57143 13.3572 6.38095 15.5001L5.52381 11.4524C5.38095 10.881 4.95238 10.7382 4.42857 10.7382H0Z" fill="#FFBC00"/>
<path d="M0 10.7382C3.04762 11.4524 5.57143 13.3096 6.38095 15.4524L5.57143 12.0715C5.42857 11.5001 4.95238 11.1667 4.42857 11.1667L0 10.7382Z" fill="#F7981D"/>
<path d="M0 10.7382C3.04762 11.4524 5.57143 13.3096 6.38095 15.4524L5.80952 13.5953C5.66667 13.0239 5.47619 12.4524 4.80952 12.2143L0 10.7382Z" fill="#ED7C00"/>
<path d="M9.00046 16.4523L7.38142 14.8333L6.61951 16.6428L6.42904 15.4523C6.00046 14.0238 4.61951 12.4523 3.0957 11.6904L5.23856 19.3095H7.80999L9.00046 16.4523Z" fill="#051244"/>
<path d="M13.4286 19.3095L11.381 17.2142L11 19.3095H13.4286Z" fill="#051244"/>
<path d="M18.9046 16.3571C19.0951 16.5475 19.1903 16.6904 19.1427 16.8809C19.1427 17.4523 18.3808 17.738 17.7141 17.738C16.7617 17.738 16.2379 17.5952 15.4284 17.2618L15.0951 17.119L14.7617 19.0713C15.3331 19.3094 16.3808 19.5475 17.476 19.5475C18.9998 19.5475 20.2379 19.119 20.9522 18.3571L18.9046 16.3571Z" fill="#051244"/>
<path d="M21.668 19.3095H23.9061L24.3823 17.8809H27.4299L27.7156 19.3095H30.0013L29.1918 15.8333L26.3346 13.0714L26.4775 13.8333C26.4775 13.8333 26.9537 15.9762 27.0489 16.4524H25.0489C25.2394 15.9762 26.0013 13.9286 26.0013 13.9286C26.0013 13.9286 26.1918 13.4047 26.3346 13.0714" fill="#051244"/>
</g>
<defs>
<clipPath id="clip0">
<rect width="30" height="30" fill="white"/>
</clipPath>
</defs>
</svg>
