<svg width="44" height="50" viewBox="0 0 44 50" fill="none" xmlns="http://www.w3.org/2000/svg">
<path d="M42.9489 35H24.6156V33.3333H40.4489C40.8636 33.3333 41.2151 33.0285 41.2741 32.6184C41.5976 29.0523 41.1989 25.4582 40.1006 22.05C38.4657 16.6667 34.4415 8.99983 24.6156 2.87842V2.5C24.6156 1.11938 23.4966 0 22.1156 0C20.735 0 19.6156 1.11938 19.6156 2.5V3.19905C14.7084 18.5832 0.850557 31.7615 0.710583 31.8925C0.461559 32.1264 0.380586 32.4894 0.506725 32.8072C0.632865 33.1254 0.940482 33.3337 1.28228 33.3333H19.6156V35H3.78228C3.42787 35 3.11252 35.2246 2.99574 35.5591L0.750866 41.9999C0.0318718 43.7972 0.251192 45.8341 1.3364 47.4373C2.4216 49.0401 4.2315 50.0004 6.16753 50H33.7298C36.1061 50.011 38.2476 48.5701 39.133 46.3651L43.709 36.1743C43.8246 35.9163 43.8018 35.6177 43.648 35.3804C43.4946 35.1432 43.2313 35 42.9489 35ZM39.6832 31.6666H24.6156V4.84578C39.6384 14.7091 39.8659 28.4041 39.6832 31.6666ZM3.29074 31.6666C6.62408 28.2173 14.9314 18.9551 19.6156 7.96346V31.6666H3.29074ZM21.2823 2.5C21.2823 2.03979 21.6554 1.66667 22.1156 1.66667C22.5758 1.66667 22.9489 2.03979 22.9489 2.5V35H21.2823V2.5ZM19.6156 36.6666H41.6615L40.1617 40H3.21221L4.37473 36.6666H19.6156ZM37.599 45.7141C36.9708 47.2998 35.4355 48.339 33.7298 48.3333H6.16753C4.77756 48.3337 3.47914 47.6416 2.70521 46.4872C1.93088 45.3328 1.78358 43.8688 2.31174 42.5834L2.63156 41.6666H39.4166L37.599 45.7141Z" fill="#787878"/>
</svg>
