<svg width="50" height="28" viewBox="0 0 50 28" fill="none" xmlns="http://www.w3.org/2000/svg">
<path d="M48.6831 15.3504H37.8429V12.4573C37.8429 11.5056 37.0689 10.7316 36.1175 10.7316H34.4017C33.7402 10.7316 33.1478 11.1001 32.8544 11.6925L31.0466 15.3504H29.7371V13.0631C29.7371 11.7795 28.6926 10.7354 27.4093 10.7354H24.4018V1.54501C24.4018 1.14256 24.0757 0.816406 23.6732 0.816406C23.2708 0.816406 22.9446 1.14256 22.9446 1.54501V10.7354H19.2375V7.98804C19.2375 7.58559 18.9109 7.25905 18.5085 7.25905C18.106 7.25905 17.7799 7.58559 17.7799 7.98804V10.7354H13.7035C12.4202 10.7354 11.3758 11.7795 11.3758 13.0631V15.3504H4.31935V12.597C4.31935 12.1926 3.99128 11.8645 3.58692 11.8645C3.18257 11.8645 2.8545 12.1926 2.8545 12.597V15.3504H1.08486C0.669444 15.3504 0.296748 15.582 0.112879 15.9547C-0.070989 16.3274 -0.0278829 16.7641 0.225031 17.0941L5.07809 23.4227C6.94653 25.8595 9.89491 27.3141 12.9654 27.3141H43.0027C43.3971 27.3141 43.7595 27.084 43.9251 26.7281C44.5159 25.4609 45.8004 24.6419 47.1977 24.6419H48.5302C49.3408 24.6419 50 23.9827 50 23.1725V16.6672C50 15.9413 49.4091 15.3504 48.6831 15.3504ZM34.1678 12.3418C34.2121 12.2521 34.3017 12.1964 34.4017 12.1964H36.1175C36.2613 12.1964 36.3781 12.3135 36.3781 12.4573V15.3504H32.6805L34.1678 12.3418ZM48.5424 21.0828H40.0989C39.6965 21.0828 39.3703 21.4089 39.3703 21.8114C39.3703 22.2138 39.6965 22.5404 40.0989 22.5404H48.5424V23.1725C48.5424 23.1789 48.537 23.1847 48.5302 23.1847H47.1977C45.3323 23.1847 43.61 24.2242 42.7326 25.8565H12.9654C10.3469 25.8565 7.8323 24.6167 6.23776 22.5404H36.7466C37.149 22.5404 37.4752 22.2138 37.4752 21.8114C37.4752 21.4089 37.149 21.0828 36.7466 21.0828H5.12005L1.84208 16.808H13.3957C13.7981 16.808 14.1246 16.4815 14.1246 16.079C14.1246 15.677 13.7981 15.3504 13.3957 15.3504H12.8334V13.0631C12.8334 12.5832 13.2236 12.193 13.7035 12.193H27.4089C27.8888 12.193 28.2795 12.5832 28.2795 13.0631V15.3504H16.8441C16.4417 15.3504 16.1155 15.677 16.1155 16.079C16.1155 16.4815 16.4417 16.808 16.8441 16.808H48.5424V21.0828Z" fill="#787878"/>
</svg>
