<svg width="50" height="30" viewBox="0 0 50 30" fill="none" xmlns="http://www.w3.org/2000/svg">
<path d="M49.9818 22.2334C49.9814 22.2323 49.9814 22.2315 49.9814 22.2307C48.1724 13.1838 40.2337 6.79683 31.1554 6.79683H28.5332L25.8736 1.47761C25.6321 0.995051 25.0458 0.799356 24.5632 1.04083L18.7039 3.97052C18.2213 4.21161 18.026 4.79831 18.2671 5.28087C18.5082 5.76305 19.0949 5.95874 19.5774 5.71727L24.5632 3.22436L26.3497 6.79683H25C24.4606 6.79683 24.0235 7.23438 24.0235 7.77339V15.5859H19.5313V13.1044C19.5313 11.2486 18.2102 9.63802 16.3906 9.27486L7.60194 7.51705C6.45028 7.28626 5.26849 7.58113 4.35982 8.32576C3.45116 9.07039 2.92969 10.1717 2.92969 11.3466V12.6562H0.976564C0.437165 12.6562 0 13.0938 0 13.6328V22.4222C0 22.4402 0.00190735 22.4573 0.0026703 22.4753C0.00343323 22.4875 0.00343323 22.4993 0.00457764 22.5115C0.0110626 22.5855 0.0263214 22.6568 0.0484467 22.7251C0.0492096 22.727 0.0495911 22.7289 0.0499726 22.7308C1.35117 26.6348 4.99078 29.2582 9.10646 29.2582H34.9102C39.1732 29.2582 41.848 27.3188 42.3115 27.1116C44.2593 25.8898 46.2735 24.626 48.3945 23.7425L49.3993 23.3233H49.4C49.8158 23.1501 50.0729 22.6965 49.9818 22.2334ZM5.59769 9.83638C6.05203 9.46407 6.64292 9.3172 7.21856 9.43241L16.008 11.1902C16.9178 11.3718 17.5781 12.1767 17.5781 13.1044V15.5859H15.8535C12.4436 13.917 8.67425 12.9305 4.88282 12.7073V11.3466C4.88282 10.7592 5.14336 10.2087 5.59769 9.83638ZM41.2736 25.4568C41.1301 25.5213 38.6746 27.305 34.9102 27.305H9.10646C6.30837 27.305 3.78685 25.7807 2.46697 23.3988H18.6524C19.1918 23.3988 19.6289 22.9612 19.6289 22.4222C19.6289 21.8828 19.1918 21.4453 18.6524 21.4453H1.95313V14.6093H3.21503C7.25595 14.6093 11.4132 15.5493 15.1886 17.436C15.324 17.5039 15.4736 17.539 15.625 17.539H25C25.5394 17.539 25.9766 17.1019 25.9766 16.5625V8.74996H31.1554C36.5521 8.74996 41.6699 11.3314 44.9032 15.5859H43.1641C42.6247 15.5859 42.1876 16.0234 42.1876 16.5625C42.1876 17.1019 42.6247 17.539 43.1641 17.539H46.1865C46.8804 18.7716 47.4175 20.0796 47.7898 21.4453H27.4414C26.9024 21.4453 26.4649 21.8828 26.4649 22.4222C26.4649 22.9612 26.9024 23.3976 27.4414 23.3976H44.682C43.512 24.0519 42.3825 24.7614 41.2736 25.4568Z" fill="white"/>
</svg>
