<svg width="50" height="20" viewBox="0 0 50 20" fill="none" xmlns="http://www.w3.org/2000/svg">
<path d="M48.6153 12.4349C47.3385 12.0076 38.8951 9.18324 33.653 7.43116L30.9079 2.37022L32.2038 1.55731C32.5517 1.33911 32.6566 0.8802 32.4384 0.5323C32.2202 0.184401 31.7613 0.0791161 31.4134 0.297697L23.6005 5.19918L18.4408 3.77135C18.0353 3.6592 17.6046 3.70001 17.2273 3.88579L10.4601 7.22249H1.13126C0.654423 7.22249 0.239004 7.51088 0.0723022 7.95758C-0.094018 8.40428 0.0311036 8.89447 0.391591 9.20651L2.65141 11.1638C2.96154 11.4324 3.43113 11.3988 3.70007 11.0883C3.969 10.7778 3.93505 10.3086 3.62492 10.0396L2.08874 8.70946H22.1811C22.8818 8.70946 23.5868 8.55038 24.22 8.24941C25.0253 7.86679 25.7661 7.60015 26.4505 7.44451C26.4592 7.4426 26.468 7.44069 26.4768 7.4384C27.477 7.21486 28.3559 7.23127 29.1303 7.48838C30.7706 8.03349 46.37 13.252 48.1434 13.8452C48.3643 13.9192 48.5127 14.1252 48.5127 14.3582V14.372H41.1271C40.7166 14.372 40.3836 14.705 40.3836 15.1155C40.3836 15.5263 40.7166 15.8593 41.1271 15.8593H48.5127V17.6763C48.5127 17.7129 48.4829 17.7426 48.4463 17.7426H23.5044C19.8396 17.7426 16.2683 17.0751 12.9202 15.7842C13.632 15.8338 14.3453 15.8593 15.0579 15.8593H37.6244C38.0349 15.8593 38.3679 15.5263 38.3679 15.1155C38.3679 14.705 38.0349 14.372 37.6244 14.372H15.0579C12.8519 14.372 10.6405 14.1213 8.4833 13.6273C7.71311 13.1696 6.96009 12.676 6.22653 12.145C5.89389 11.9039 5.42888 11.9786 5.18817 12.3113C4.94747 12.6439 5.02185 13.1086 5.35449 13.3496C7.58837 14.9667 9.99277 16.2621 12.5166 17.2219C12.2293 17.4199 11.886 17.5313 11.5213 17.5351C11.5148 17.5351 11.5087 17.5351 11.5022 17.5351C10.911 17.5351 10.3594 17.244 10.024 16.7539C9.88595 16.5521 9.65707 16.4311 9.41179 16.435C9.16727 16.4372 8.93991 16.562 8.8064 16.7668C8.47795 17.2692 7.92444 17.5729 7.32592 17.5794C6.69192 17.5866 6.11094 17.2643 5.77869 16.7188C5.64441 16.4983 5.40294 16.3617 5.14545 16.3674H5.12294C4.86469 16.3701 4.62665 16.5086 4.49695 16.7321C4.17614 17.2845 3.6047 17.6183 2.96841 17.6251C2.32983 17.629 1.75229 17.31 1.42041 16.7645C1.20984 16.4189 0.759327 16.3095 0.413716 16.52C0.0681061 16.7306 -0.0413754 17.1811 0.169195 17.5267C0.758182 18.493 1.82133 19.09 2.9501 19.09C2.96116 19.09 2.97261 19.09 2.98367 19.0896C3.79505 19.0812 4.56829 18.7642 5.15384 18.2263C5.75046 18.752 6.53018 19.0564 7.34156 19.0438C8.12014 19.0358 8.85637 18.7512 9.43086 18.2557C10.0157 18.739 10.7607 19.0099 11.5369 18.9999C12.5223 18.9896 13.4504 18.5243 14.055 17.7613C17.0804 18.731 20.2577 19.2296 23.5044 19.2296H48.4463C49.3031 19.2296 50 18.5326 50 17.6763V14.3582C49.9996 13.4847 49.4435 12.7118 48.6153 12.4349ZM16.8645 7.22249H13.8227L17.885 5.21978C17.9346 5.19537 17.9906 5.19003 18.044 5.20453L19.5386 5.61842L16.8645 7.22249ZM23.5818 6.90664C23.1469 7.11301 22.6625 7.22249 22.1811 7.22249H19.7553L21.5066 6.17193C21.5101 6.17002 21.5127 6.16735 21.5162 6.16544L23.8126 6.80097C23.7359 6.83607 23.6596 6.86963 23.5818 6.90664ZM29.5991 6.07732C28.6084 5.7485 27.5228 5.7073 26.3208 5.9522L25.5422 5.73667L29.6456 3.16214L31.5869 6.7407C30.5978 6.41035 29.8856 6.17231 29.5991 6.07732Z" fill="#787878"/>
</svg>
