<svg width="50" height="15" viewBox="0 0 50 15" fill="none" xmlns="http://www.w3.org/2000/svg">
<path d="M49.7343 4.30454C49.5656 4.14628 49.3334 4.06857 49.1065 4.08335L41.1961 4.65825C41.147 4.60629 41.1032 4.55052 41.0398 4.51095C36.2985 1.56113 28.7943 0.46233 28.4768 0.41752C28.1002 0.36556 27.7284 0.575309 27.5854 0.932834L25.6452 5.78899L25.4097 5.80615V3.8083C25.4097 3.34828 25.0374 2.9755 24.5769 2.9755C24.1164 2.9755 23.7436 3.34828 23.7436 3.8083V5.92723L20.4773 6.16463C19.9329 3.91126 17.894 2.24472 15.5072 2.24472C15.0467 2.24472 14.6739 2.61797 14.6739 3.07799V6.58651L7.42805 7.11327C7.31507 6.91543 7.18541 6.72571 7.02142 6.55838C6.52184 6.04927 5.85494 5.76515 5.14227 5.75896L2.79928 5.73655C2.79022 5.73655 2.78021 5.73655 2.77163 5.73655C1.36918 5.73655 0.161693 6.77338 0.0158221 8.10719C-0.0661706 8.85894 0.173134 9.61356 0.672716 10.1765C1.17278 10.74 1.89069 11.0665 2.64292 11.0737L3.73743 11.0842L3.7298 11.8274C3.72027 12.9362 4.61408 13.8462 5.72241 13.8572H5.74196C6.05277 13.8572 6.34355 13.7799 6.60717 13.6531C6.69107 13.7118 6.78498 13.7585 6.89081 13.7837L9.42972 14.382C9.97554 14.5841 10.5452 14.6847 11.112 14.6847C11.9329 14.6847 12.7499 14.4735 13.486 14.0588L14.5037 13.4853C15.5544 12.8933 16.8257 12.9424 17.8282 13.6136C19.3146 14.6113 21.22 14.7062 22.7998 13.8634L23.7918 13.3342C24.7533 12.8199 25.9369 12.8418 26.8818 13.3919L27.8618 13.9635C29.1833 14.7329 30.8102 14.8301 32.2113 14.2261L34.7764 13.1207C35.7074 12.7188 36.7819 12.7893 37.6519 13.307L38.5891 13.8643C39.0534 14.1394 39.5687 14.3348 40.1202 14.444C40.2318 14.4664 40.3457 14.4659 40.4568 14.4411C45.3434 13.3924 47.6783 10.8873 48.7766 8.97002C49.9836 6.86204 49.9999 4.9929 49.9999 4.91472C49.9999 4.68352 49.9036 4.46185 49.7343 4.30454ZM28.8844 2.1713C30.4704 2.44684 34.6844 3.28392 38.1738 4.87754L27.4929 5.65456L28.8844 2.1713ZM16.34 4.01328C17.485 4.30025 18.4051 5.1688 18.7754 6.2881L16.34 6.46543V4.01328ZM6.08614 11.8483C6.08375 12.0381 5.93025 12.1906 5.74148 12.1906C5.73957 12.1906 5.7391 12.1906 5.73814 12.1906C5.54794 12.1892 5.39397 12.0323 5.3954 11.8426L5.41113 10.2671C5.41351 10.0459 5.32723 9.83332 5.1723 9.67553C5.01785 9.51775 4.80619 9.42813 4.58596 9.42574L2.65865 9.40763C2.3712 9.40477 2.10854 9.28512 1.91834 9.07012C1.72718 8.85561 1.63994 8.57817 1.67141 8.28786C1.72527 7.79781 2.21675 7.40262 2.77068 7.40262H2.78212L5.12606 7.42503C5.39349 7.42741 5.64423 7.53419 5.83158 7.72535C6.0194 7.91651 6.12093 8.16963 6.11855 8.43706L6.08614 11.8483ZM40.2823 12.7741C39.9782 12.6983 39.695 12.5834 39.4385 12.4313L38.5023 11.875C37.1756 11.0856 35.5344 10.9793 34.1171 11.5904L31.552 12.6959C30.6301 13.0921 29.5661 13.0286 28.7004 12.5238L27.7193 11.9523C26.2592 11.1023 24.4959 11.0699 23.0071 11.8641L22.0156 12.3937C20.9807 12.9457 19.7327 12.8842 18.7554 12.2302C17.2276 11.2048 15.2855 11.1309 13.6852 12.0343L12.6675 12.6077C11.8409 13.0744 10.8579 13.1473 9.97125 12.8056C9.93645 12.7922 9.9007 12.7812 9.86399 12.7727L7.70835 12.265C7.73552 12.1358 7.75125 12.0023 7.75268 11.865L7.78224 8.75884L48.2218 5.81807C47.87 7.58186 46.4003 11.3945 40.2823 12.7741Z" fill="#787878"/>
</svg>
