<svg width="50" height="45" viewBox="0 0 50 45" fill="none" xmlns="http://www.w3.org/2000/svg">
<path d="M49.0234 42.1872H38.4293C41.3071 41.1946 44.0632 39.8316 46.6354 38.1169C46.9936 37.8781 47.1531 37.4333 47.0284 37.0213C46.9036 36.6097 46.524 36.3278 46.0938 36.3278H31.8359V31.8356H39.6484C39.9765 31.8356 40.2828 31.6708 40.4636 31.3965C40.6445 31.1226 40.6754 30.7763 40.546 30.4745L31.757 9.96671C31.5742 9.54023 31.1172 9.30104 30.6629 9.3945C30.209 9.48796 29.8828 9.88736 29.8828 10.3512V36.3278H25.9766V0.976227C25.9766 0.624512 25.7874 0.299881 25.481 0.126312C25.1747 -0.0468752 24.7993 -0.0422977 24.4976 0.138901C15.0551 5.80525 9.375 16.5677 9.375 27.4342V29.8825H7.42188C6.88248 29.8825 6.44531 30.3196 6.44531 30.859C6.44531 31.3984 6.88248 31.8356 7.42188 31.8356H24.0234V36.3278H6.83594C6.46591 36.3278 6.12793 36.5368 5.96237 36.8676L3.30276 42.1872H0.976562C0.437164 42.1872 0 42.6243 0 43.1637C0 43.7031 0.437164 44.1403 0.976562 44.1403H49.0234C49.5628 44.1403 50 43.7031 50 43.1637C50 42.6243 49.5628 42.1872 49.0234 42.1872ZM31.8359 15.1089L38.1676 29.8825H31.8359V15.1089ZM24.0234 2.76952V24.0231H11.5265C12.5187 15.4374 17.1944 7.50852 24.0234 2.76952ZM11.3281 29.8825V27.4342C11.3281 26.9528 11.3419 26.4649 11.3663 25.9762H24.0234V29.8825H11.3281ZM7.43942 38.2798H42.5461C37.6862 40.8444 32.2865 42.1872 26.741 42.1872H5.4863L7.43942 38.2798Z" fill="#787878"/>
</svg>
