<svg width="50" height="16" viewBox="0 0 50 16" fill="none" xmlns="http://www.w3.org/2000/svg">
<path d="M48.655 11.6915L47.0595 11.639L46.6917 9.36762C46.5785 8.67733 45.9666 8.13819 45.2683 8.11394L33.897 7.69847L29.4401 3.60038L32.5625 2.10178C33.2957 1.74775 33.2302 1.18436 33.193 1.02027C33.155 0.856996 32.9699 0.321899 32.1552 0.321899H20.3919C19.8916 0.321899 19.27 0.540949 18.8804 0.856187L11.4416 6.88047L11.0544 6.86592V5.99942C11.0544 5.47079 10.6236 5.03188 10.0925 5.02218L2.11701 4.90013C1.85188 4.90094 1.61182 4.99308 1.42672 5.17495C1.24242 5.35682 1.13977 5.59931 1.13977 5.86039V6.50623L1.04439 6.50219C0.316916 6.50219 0.0954407 6.98878 0.0453259 7.1367C-0.00559714 7.28866 -0.126843 7.81406 0.469685 8.27156C1.6102 9.1518 5.48035 12.2282 7.37017 14.873C7.70965 15.3474 8.34175 15.6789 8.90756 15.6789H48.6268C49.3849 15.6789 50.0001 15.0613 50.0001 14.3055V13.0826C50.0009 12.343 49.3979 11.719 48.655 11.6915ZM19.8964 2.11472C19.9959 2.03389 20.2642 1.93931 20.3919 1.93931H29.1669L28.1735 2.41702C27.7936 2.5997 27.5438 2.92544 27.4848 3.31181C27.4282 3.69818 27.5729 4.08213 27.8825 4.36746L31.4075 7.61118L13.8972 6.97343L19.8964 2.11472ZM9.04255 5.81513L10.0788 5.8321C10.1709 5.83372 10.2461 5.9097 10.2461 6.00104V6.83763L9.04255 6.79318V5.81513ZM6.50124 5.77633L8.23424 5.803V6.76327L6.50124 6.70103V5.77633ZM4.20728 5.74076L5.69294 5.7634V6.67112L4.20728 6.61777V5.74076ZM1.94807 5.86039C1.94888 5.80462 1.97717 5.76905 1.99414 5.75127C2.01354 5.73026 2.0386 5.71651 2.10326 5.70843L3.39897 5.72702V6.58706L1.94807 6.53533V5.86039ZM7.20123 12.1385C5.84328 10.6633 4.22991 9.23829 2.95683 8.18831L45.1131 9.7257L45.4808 11.9954C45.5196 12.2322 45.6191 12.4497 45.7581 12.6364L7.20123 12.1385ZM48.3851 14.0647H8.91645V14.0639C8.8534 14.0574 8.72407 13.9838 8.68608 13.9345C8.45491 13.612 8.19383 13.2838 7.91981 12.9565L48.3851 13.4787V14.0647Z" fill="#787878"/>
</svg>
