<svg width="46" height="50" viewBox="0 0 46 50" fill="none" xmlns="http://www.w3.org/2000/svg">
<path d="M0.497635 31.9574C3.13673 25.799 6.92926 21.2539 7.08944 21.0634C7.28722 20.8282 7.603 20.7274 7.90009 20.8045C8.19763 20.8814 8.4246 21.1225 8.48343 21.4242C9.59082 27.0991 13.6992 31.6902 13.7402 31.7356C13.9523 31.9694 14.0067 32.3062 13.8789 32.5949C13.7511 32.8835 13.465 33.0697 13.1493 33.0697H10.7225C13.2858 36.835 17.1479 38.4938 17.8909 38.7863C20.2102 38.6657 20.2483 35.4696 20.2488 35.3318V17.2064H16.0056C15.9368 17.2064 15.8693 17.2009 15.8024 17.1931C15.4657 18.0155 14.6574 18.5968 13.7151 18.5968C12.4718 18.5968 11.4601 17.5851 11.4601 16.3417V12.2617C11.4601 11.0184 12.4718 10.0069 13.7151 10.0069C14.6575 10.0069 15.4656 10.5883 15.8024 11.4104C15.8692 11.4026 15.9368 11.3971 16.0055 11.3971H20.2486V8.57927C19.0504 7.71994 18.2674 6.31626 18.2674 4.73247C18.2676 2.1229 20.3905 0 22.9998 0C25.6091 0 27.7321 2.1229 27.7321 4.73247C27.7321 6.31638 26.9493 7.71983 25.7509 8.57927V11.397H29.994C30.0629 11.397 30.1307 11.4011 30.1976 11.4091C30.5347 10.5874 31.3424 10.0067 32.2841 10.0067C33.5278 10.0067 34.5396 11.0182 34.5396 12.2615V16.3415C34.5396 17.5849 33.5278 18.5965 32.2841 18.5965C31.3425 18.5965 30.5347 18.0158 30.1977 17.1942C30.1307 17.2021 30.0628 17.2062 29.994 17.2062H25.7509V35.3319C25.7509 35.3467 25.7505 35.3614 25.7496 35.3761C25.7487 35.3939 25.6763 37.1892 26.5937 38.159C26.9689 38.5555 27.4648 38.7617 28.1066 38.7872C28.8472 38.4958 32.7124 36.8374 35.2775 33.0698H32.8503C32.8495 33.0699 32.8487 33.0699 32.848 33.0698C32.4073 33.0698 32.05 32.7125 32.05 32.2718C32.05 32.0495 32.1411 31.8483 32.2878 31.7036C32.656 31.2851 36.4548 26.8638 37.516 21.4243C37.575 21.1228 37.8018 20.8817 38.0993 20.8046C38.3967 20.7275 38.7122 20.8283 38.9099 21.0635C39.0702 21.254 42.8632 25.7991 45.5018 31.9575C45.6076 32.2041 45.5822 32.4872 45.4346 32.711C45.2869 32.9351 45.0367 33.0698 44.7684 33.0698H41.6369C41.2939 33.9826 40.466 35.8731 38.8449 38.0197C36.8533 40.6572 33.2386 44.1889 27.2458 46.2394C27.032 47.6173 26.0692 49.5789 23.4513 49.9392C23.3456 49.9831 23.2304 50.0034 23.1139 49.9994C23.0739 49.9978 23.0364 49.9944 22.9996 49.9901C22.9629 49.9944 22.9254 49.9978 22.8853 49.9994C22.8748 49.9999 22.8641 50.0001 22.8538 50.0001C22.748 50.0001 22.6442 49.979 22.548 49.9392C19.9299 49.5789 18.9673 47.6173 18.7538 46.2393C12.7608 44.189 9.14599 40.6572 7.1543 38.0197C5.53311 35.8731 4.70525 33.9826 4.36222 33.0698H1.23077C0.962414 33.0698 0.712185 32.9351 0.564552 32.711C0.417152 32.4872 0.391846 32.2039 0.497635 31.9574ZM14.3746 13.4016V12.2616C14.3746 11.8983 14.0786 11.6028 13.7151 11.6028C13.3517 11.6028 13.0561 11.8984 13.0561 12.2616V13.4016V16.3416C13.0561 16.705 13.3518 17.0006 13.7151 17.0006C14.0786 17.0006 14.3746 16.7049 14.3746 16.3416V13.4016ZM31.625 13.4016V16.3416C31.625 16.705 31.9207 17.0006 32.284 17.0006C32.6476 17.0006 32.9435 16.7049 32.9435 16.3416V13.4016V12.2616C32.9435 11.8983 32.6476 11.6028 32.284 11.6028C31.9206 11.6028 31.625 11.8984 31.625 12.2616V13.4016ZM25.8077 6.12725C25.8638 6.01473 25.9135 5.89857 25.9559 5.77898C25.9608 5.7653 25.9653 5.75151 25.9699 5.73783C25.9858 5.69109 26.0006 5.64389 26.0143 5.59624C26.0187 5.58051 26.0234 5.56489 26.0276 5.54905C26.0602 5.42821 26.0859 5.30452 26.1039 5.17843C26.1065 5.16065 26.1086 5.14264 26.1108 5.12474C26.1168 5.07766 26.1216 5.03035 26.1253 4.98258C26.1269 4.96377 26.1285 4.94496 26.1297 4.92604C26.1335 4.86186 26.1363 4.79745 26.1363 4.73235C26.1363 3.00286 24.7293 1.59588 22.9999 1.59588C22.9348 1.59588 22.8703 1.5985 22.8062 1.60249C22.7874 1.60363 22.7686 1.60534 22.7498 1.60682C22.7021 1.61059 22.6547 1.61537 22.6076 1.6213C22.5899 1.62358 22.5718 1.62563 22.5539 1.62814C22.4277 1.64627 22.3042 1.6718 22.1832 1.70441C22.1674 1.70863 22.1519 1.7133 22.1361 1.71775C22.0885 1.73143 22.0413 1.74625 21.9945 1.76209C21.9809 1.76665 21.9671 1.77121 21.9535 1.776C21.8338 1.81852 21.7178 1.86811 21.6051 1.9242C21.5944 1.92956 21.5839 1.93503 21.5734 1.9405C21.5246 1.96547 21.4765 1.99169 21.4293 2.01916C21.4217 2.02361 21.4138 2.02794 21.4062 2.0325C21.2949 2.09851 21.1883 2.17112 21.0864 2.24978C21.0813 2.25377 21.0762 2.25776 21.071 2.26175C21.0225 2.29983 20.975 2.33904 20.9289 2.37974C20.9268 2.38157 20.9248 2.38328 20.9228 2.38499C20.8234 2.47299 20.7299 2.56727 20.6424 2.66702C20.6413 2.66839 20.6401 2.66976 20.6389 2.67112C20.507 2.82206 20.3893 2.98565 20.288 3.15984H20.2879C20.0187 3.62257 19.8636 4.15939 19.8636 4.73212C19.8636 6.4615 21.2705 7.86848 22.9999 7.86848C23.5725 7.86848 24.1095 7.71344 24.5722 7.44418C24.5728 7.44383 24.5734 7.44349 24.574 7.44303C24.7473 7.34214 24.9097 7.22518 25.0599 7.09408C25.0619 7.09237 25.0639 7.09066 25.0658 7.08895C25.1653 7.00174 25.2591 6.90849 25.3469 6.80954C25.349 6.80726 25.3508 6.80498 25.3529 6.8027C25.3933 6.75676 25.4323 6.70956 25.47 6.66134C25.4743 6.6561 25.4784 6.65085 25.4826 6.64549C25.5611 6.54369 25.6338 6.4371 25.6995 6.32607C25.7041 6.31831 25.7085 6.31033 25.7131 6.30247C25.7403 6.25539 25.7666 6.20751 25.7915 6.15883C25.7968 6.14846 25.8024 6.13797 25.8077 6.12725ZM23.015 9.58475C22.9739 9.58554 22.9328 9.58406 22.8921 9.57848L21.8446 9.43541V11.397H23.015H24.155V9.43541L23.1081 9.57848C23.0773 9.58258 23.0461 9.58418 23.015 9.58475ZM29.994 15.6104C30.0051 15.6104 30.0169 15.6083 30.0291 15.6052V14.1382V12.9982C30.0169 12.9953 30.0051 12.993 29.994 12.993H16.0056C15.9945 12.993 15.9827 12.9953 15.9706 12.9982V14.1382V15.6052C15.9825 15.6083 15.9945 15.6104 16.0056 15.6104H29.994ZM4.93154 31.4737C5.28596 31.4737 5.59832 31.7089 5.69796 32.0489C5.70468 32.072 6.39735 34.3881 8.47202 37.1155C10.3782 39.6217 13.8819 43.0043 19.747 44.887C20.0764 44.9928 20.3002 45.2985 20.3012 45.6444C20.3014 45.7419 20.3369 47.9555 22.6665 48.342C22.6689 48.3423 22.6711 48.3429 22.6736 48.3434C22.757 48.357 22.8428 48.3689 22.9322 48.3777C22.955 48.38 22.9777 48.3831 22.9998 48.3872C23.022 48.3831 23.0447 48.3798 23.0675 48.3777C25.5874 48.1293 25.695 45.8936 25.6988 45.6443C25.7 45.2985 25.9238 44.9928 26.253 44.887C32.1181 43.0044 35.6215 39.6218 37.5277 37.1155C39.6022 34.388 40.2949 32.072 40.3013 32.0502C40.3999 31.7088 40.7124 31.4736 41.068 31.4736H42.3973H43.5373C41.8749 27.9093 39.8616 24.9656 38.6829 23.3736C38.6315 23.5506 38.5774 23.7256 38.5218 23.8996C38.5171 23.9144 38.5124 23.9293 38.5076 23.9441C38.4505 24.1213 38.3912 24.2966 38.3302 24.4704C37.2567 27.525 35.6047 30.0303 34.5217 31.4736H36.6967C36.9777 31.4736 37.2382 31.6216 37.3821 31.863C37.5262 32.1045 37.5323 32.4038 37.3987 32.6511C34.3718 38.2504 28.7454 40.2586 28.5073 40.3415C28.4232 40.3708 28.3345 40.3857 28.2453 40.3857C27.9624 40.3857 27.6922 40.3626 27.4349 40.3172C27.3422 40.3008 27.2515 40.2809 27.162 40.2586C27.1482 40.2552 27.1344 40.2514 27.1208 40.2479C26.9458 40.2023 26.7773 40.1454 26.6156 40.0771C26.6006 40.0707 26.5858 40.0643 26.5708 40.0578C26.4918 40.0231 26.4139 39.9866 26.3382 39.9464L26.3378 39.9463C26.2623 39.9061 26.1889 39.8626 26.1168 39.817C26.1009 39.8071 26.0852 39.7968 26.0695 39.7865C25.9996 39.7408 25.9307 39.6934 25.864 39.6425C25.863 39.6418 25.862 39.6411 25.8611 39.6403C25.7939 39.589 25.7291 39.5342 25.6652 39.4776C25.6497 39.4638 25.6344 39.4499 25.6192 39.4359C25.5562 39.3781 25.4943 39.3187 25.4347 39.2557C24.0965 37.8413 24.1436 35.5954 24.1551 35.3137V17.2064H23.0151H21.8447V35.3308C21.845 35.4345 21.8319 37.8889 20.3817 39.3413C19.6897 40.0344 18.8057 40.3858 17.7546 40.3858C17.6653 40.3858 17.5766 40.3709 17.4925 40.3416C17.4794 40.3371 17.449 40.3263 17.4046 40.3098C17.396 40.3067 17.3874 40.3034 17.3778 40.2998C17.372 40.2976 17.3656 40.2952 17.3593 40.2928C17.3516 40.2899 17.3438 40.2869 17.3354 40.2837C17.3259 40.2801 17.3155 40.2761 17.3053 40.2721C17.2986 40.2696 17.2923 40.2672 17.2853 40.2644C17.273 40.2596 17.2597 40.2544 17.2463 40.2492C17.2402 40.2468 17.2345 40.2445 17.2281 40.242C17.211 40.2351 17.1929 40.2278 17.1742 40.2203C17.1711 40.2191 17.1681 40.2179 17.165 40.2166C17.0512 40.1706 16.911 40.1117 16.7478 40.0391C16.7469 40.0387 16.746 40.0384 16.7452 40.0379C16.7142 40.0241 16.6822 40.0098 16.6494 39.9949C16.6451 39.993 16.6406 39.9908 16.6362 39.9889C16.6061 39.9752 16.5757 39.9612 16.5442 39.9467C16.5393 39.9444 16.5343 39.942 16.5293 39.9398C16.4984 39.9254 16.4667 39.9106 16.4344 39.8954C16.4284 39.8926 16.4225 39.8897 16.4163 39.8868C16.3851 39.8719 16.3532 39.8568 16.3208 39.8412C16.3134 39.8376 16.3057 39.834 16.2983 39.8303C16.2664 39.8149 16.234 39.7992 16.2011 39.783C16.1933 39.7791 16.1855 39.7754 16.1776 39.7715C16.1447 39.7552 16.1112 39.7386 16.0774 39.7216C16.0688 39.7174 16.0604 39.713 16.0517 39.7088C16.0182 39.6919 15.9843 39.6747 15.9499 39.657C15.9405 39.6523 15.9311 39.6474 15.9216 39.6426C15.887 39.6248 15.852 39.6067 15.8166 39.5882C15.8073 39.5834 15.7982 39.5786 15.789 39.5737C15.7523 39.5544 15.7151 39.5347 15.6775 39.5148C15.6692 39.5103 15.6608 39.506 15.6525 39.5016C15.6142 39.481 15.5752 39.4601 15.5361 39.4386C15.5279 39.4341 15.5196 39.4297 15.5114 39.4252C15.4703 39.4027 15.4287 39.3798 15.3869 39.3564C15.3805 39.3529 15.3744 39.3495 15.368 39.3459C15.3226 39.3205 15.2764 39.2945 15.2299 39.2681C15.2271 39.2664 15.2241 39.2648 15.2211 39.2631C14.9201 39.0914 14.5994 38.8972 14.2654 38.6795C14.2582 38.6748 14.251 38.67 14.2438 38.6654C14.1962 38.6342 14.1484 38.6027 14.1002 38.5705C14.0891 38.5631 14.0781 38.5556 14.0669 38.5482C14.0226 38.5184 13.9781 38.4884 13.9333 38.4578C13.9194 38.4483 13.9055 38.4386 13.8916 38.429C13.8494 38.4001 13.8071 38.3709 13.7646 38.3411C13.7488 38.3301 13.7331 38.3189 13.7173 38.3079C13.6763 38.279 13.6351 38.2498 13.5938 38.2203C13.5768 38.2081 13.5597 38.1958 13.5426 38.1834C13.5026 38.1545 13.4626 38.1255 13.4223 38.0959C13.4039 38.0825 13.3855 38.0689 13.3671 38.0552C13.3277 38.0262 13.2885 37.9969 13.2489 37.9672C13.2298 37.9529 13.2105 37.9383 13.1913 37.9237C13.1525 37.8944 13.1136 37.8646 13.0748 37.8346C13.0548 37.8193 13.0347 37.8038 13.0148 37.7882C12.9762 37.7583 12.9375 37.7279 12.8987 37.6974C12.8787 37.6815 12.8586 37.6657 12.8386 37.6497C12.7992 37.6185 12.7599 37.5867 12.7206 37.5549C12.701 37.5389 12.6813 37.5232 12.6617 37.5071C12.6221 37.4748 12.5824 37.4418 12.5426 37.4089C12.523 37.3926 12.5034 37.3764 12.4838 37.3598C12.4437 37.3261 12.4033 37.2918 12.3631 37.2575C12.3441 37.2412 12.3251 37.2252 12.3061 37.2088C12.2642 37.1728 12.2224 37.1361 12.1804 37.0993C12.1632 37.0842 12.1459 37.0691 12.1286 37.0539C12.0833 37.0137 12.038 36.9732 11.9928 36.9322C11.9789 36.9197 11.965 36.9073 11.9511 36.8946C11.8975 36.8458 11.844 36.7965 11.7904 36.7465C11.7849 36.7414 11.7794 36.7364 11.7738 36.7312C11.6541 36.6194 11.5347 36.5046 11.4158 36.3867C11.4063 36.3773 11.3968 36.3676 11.3872 36.3581C11.3383 36.3094 11.2895 36.2605 11.241 36.2108C11.2231 36.1926 11.2052 36.174 11.1874 36.1557C11.147 36.1142 11.1067 36.0726 11.0664 36.0303C11.0455 36.0083 11.0247 35.9858 11.0038 35.9636C10.9669 35.9244 10.9301 35.8851 10.8933 35.8455C10.8705 35.8207 10.8477 35.7957 10.825 35.7707C10.7902 35.7326 10.7556 35.6945 10.721 35.6559C10.6974 35.6294 10.6738 35.6026 10.6502 35.576C10.6169 35.5382 10.5835 35.5004 10.5504 35.4621C10.5258 35.4339 10.5016 35.4053 10.4772 35.3768C10.4451 35.3393 10.413 35.3018 10.3812 35.2638C10.3563 35.2342 10.3315 35.2042 10.3068 35.1744C10.2757 35.1366 10.2445 35.0989 10.2136 35.0607C10.1886 35.03 10.1639 34.9991 10.139 34.9681C10.1084 34.9298 10.0779 34.8914 10.0475 34.8526C10.0226 34.8211 9.99791 34.7892 9.97329 34.7572C9.9433 34.7185 9.91344 34.6795 9.8838 34.6404C9.85906 34.6077 9.83432 34.5748 9.80981 34.5419C9.7804 34.5026 9.7511 34.4628 9.72192 34.423C9.69741 34.3895 9.6729 34.3558 9.6485 34.3219C9.61966 34.2817 9.59105 34.2414 9.56243 34.2008C9.53826 34.1664 9.51398 34.1321 9.48993 34.0973C9.46131 34.0561 9.43304 34.0145 9.40488 33.9729C9.38128 33.9381 9.35769 33.9035 9.33432 33.8684C9.30582 33.8257 9.27766 33.7825 9.2495 33.7394C9.22682 33.7046 9.2039 33.6698 9.18121 33.6347C9.15283 33.5903 9.12479 33.5453 9.09663 33.5004C9.07486 33.4656 9.05285 33.4311 9.03131 33.3958C9.00201 33.3484 8.97328 33.3003 8.94444 33.2522C8.92437 33.219 8.90431 33.1862 8.88459 33.1527C8.85278 33.0988 8.82143 33.0442 8.7902 32.9895C8.7739 32.961 8.75725 32.933 8.74106 32.9044C8.69375 32.8208 8.64713 32.7365 8.60096 32.6513C8.46724 32.4039 8.47362 32.1046 8.6176 31.8632C8.7617 31.6218 9.02196 31.4738 9.30308 31.4738H10.3374H11.4774C10.2674 29.8612 8.3464 26.9233 7.31618 23.3739C7.26294 23.4457 7.20754 23.5213 7.15111 23.5986C7.14222 23.6108 7.13332 23.623 7.12432 23.6353C5.92778 25.2762 4.03767 28.0966 2.46208 31.4738H4.93154V31.4737Z" fill="#787878"/>
</svg>
