<svg width="50" height="42" viewBox="0 0 50 42" fill="none" xmlns="http://www.w3.org/2000/svg">
<path d="M42.51 8.01699C37.6524 3.7542 31.3942 0.983398 25 0.983398C18.6124 0.983398 12.3533 3.74912 7.49004 8.01689C2.87002 12.0714 0 17.0473 0 21.0029C0 24.2201 2.22617 26.995 6.44531 29.0557V32.7236C6.44531 35.8779 8.56777 38.6119 11.6067 39.3723C15.9883 40.4686 20.4934 41.0166 25 41.0166C29.5057 41.0166 34.0128 40.4684 38.3932 39.3723C41.4322 38.6119 43.5547 35.8779 43.5547 32.7236V29.0557C47.7738 26.995 50 24.2201 50 21.0029C50 17.0473 47.13 12.0714 42.51 8.01699ZM37.9191 37.4774C33.6933 38.535 29.3467 39.0637 25 39.0637C20.6533 39.0637 16.3066 38.535 12.0808 37.4775C9.91269 36.9351 8.39844 34.9802 8.39844 32.7236V32.2334H20.6055C21.1447 32.2334 21.582 31.7961 21.582 31.2568C21.582 30.7176 21.1447 30.2803 20.6055 30.2803H8.39844V26.374H41.6016V30.2803H29.3945C28.8553 30.2803 28.418 30.7176 28.418 31.2568C28.418 31.7961 28.8553 32.2334 29.3945 32.2334H41.6016V32.7236C41.6016 34.9802 40.0873 36.9351 37.9191 37.4774ZM43.5547 26.8545V25.3975C43.5547 24.8582 43.1174 24.4209 42.5781 24.4209H7.42188C6.88262 24.4209 6.44531 24.8582 6.44531 25.3975V26.8544C4.16113 25.5844 1.95312 23.668 1.95312 21.0029C1.95312 17.6445 4.63223 13.1234 8.77832 9.48506C13.5205 5.32344 19.4331 2.93652 25 2.93652C30.5669 2.93652 36.4795 5.32334 41.2217 9.48506C45.3678 13.1235 48.0469 17.6446 48.0469 21.0029C48.0469 23.6681 45.8389 25.5845 43.5547 26.8545Z" fill="white"/>
</svg>
