<svg width="30" height="30" viewBox="0 0 30 30" fill="none" xmlns="http://www.w3.org/2000/svg">
<path d="M28.125 14.9443H1.875C0.841231 14.9443 0 15.7856 0 16.8193C0 17.8531 0.841231 18.6943 1.875 18.6943H28.125C29.1588 18.6943 30 17.8531 30 16.8193C30 15.7856 29.1588 14.9443 28.125 14.9443Z" fill="#39A0ED"/>
<path d="M28.2976 17.4681C27.9589 17.3731 27.6189 17.5656 27.5251 17.8981L27.4764 18.0694H2.52509L2.47511 17.8981C2.38136 17.5656 2.03888 17.3756 1.70261 17.4681C1.37009 17.5631 1.17884 17.9094 1.27388 18.2406L2.99636 24.2706C3.53009 26.1393 5.26013 27.4443 7.20263 27.4443H22.7964C24.7401 27.4443 26.4688 26.1393 27.0026 24.2706L28.7251 18.2406C28.8214 17.9093 28.6288 17.5631 28.2976 17.4681ZM7.20386 24.9443C6.37136 24.9443 5.62886 24.3856 5.40134 23.5843L4.59011 20.7418C4.49513 20.4093 4.68761 20.0643 5.01884 19.9693C5.35382 19.8743 5.69759 20.068 5.79134 20.3993L6.60257 23.2418C6.68009 23.5081 6.92631 23.6956 7.2038 23.6956C7.54881 23.6956 7.82882 23.9756 7.82882 24.3206C7.82888 24.6656 7.54886 24.9443 7.20386 24.9443Z" fill="#39A0ED"/>
<path d="M8.40353 26.2593C8.0948 26.1081 7.72103 26.2293 7.56476 26.5393L6.31478 29.0394C6.16103 29.3481 6.28601 29.7231 6.5948 29.8781C6.68603 29.9231 6.78107 29.9444 6.87482 29.9444C7.10357 29.9444 7.32359 29.8181 7.43357 29.5982L8.68355 27.0982C8.8373 26.7893 8.71226 26.4143 8.40353 26.2593Z" fill="#39A0ED"/>
<path d="M23.685 29.0406L22.435 26.5406C22.28 26.2306 21.905 26.1068 21.5962 26.2606C21.2875 26.4155 21.1625 26.7905 21.3162 27.0993L22.5662 29.5993C22.6762 29.8181 22.8962 29.9443 23.125 29.9443C23.2187 29.9443 23.3137 29.9231 23.405 29.8794C23.7138 29.7243 23.8387 29.3493 23.685 29.0406Z" fill="#39A0ED"/>
<path d="M25.1063 0.055542C24.4688 0.055542 23.8688 0.304272 23.4175 0.755562L21.4338 2.73931C21.19 2.98306 21.19 3.37933 21.4338 3.62308C21.6775 3.86683 22.0738 3.86683 22.3176 3.62308L24.3012 1.64056C24.515 1.42558 24.8012 1.30681 25.1125 1.30681C25.74 1.30681 26.25 1.81681 26.25 2.44429V15.5693C26.25 15.9143 26.53 16.1943 26.875 16.1943C27.22 16.1943 27.5 15.9143 27.5012 15.5681V2.44306C27.5013 1.12681 26.4313 0.055542 25.1063 0.055542Z" fill="#39A0ED"/>
<path d="M22.9427 3.36445L21.6927 2.11446C21.5502 1.97196 21.3514 1.9057 21.1489 1.93945L18.0239 2.45196C17.794 2.48946 17.6052 2.65195 17.5315 2.87196C17.4577 3.09198 17.5139 3.33696 17.6765 3.5032L21.4265 7.36569C21.5453 7.48944 21.709 7.55571 21.874 7.55571C21.9327 7.55571 21.9927 7.54698 22.0514 7.52946C22.2739 7.46448 22.4427 7.28073 22.4877 7.05321L23.1127 3.92823C23.1539 3.72445 23.0901 3.51316 22.9427 3.36445Z" fill="#39A0ED"/>
<path d="M14.8161 7.62813C14.5723 7.38437 14.1761 7.38437 13.9323 7.62813L12.6823 8.87811C12.4386 9.12186 12.4386 9.51813 12.6823 9.76188C12.8048 9.88311 12.9648 9.9444 13.1248 9.9444C13.2848 9.9444 13.4448 9.88316 13.5661 9.76188L14.8161 8.5119C15.0598 8.26809 15.0598 7.87188 14.8161 7.62813Z" fill="#39A0ED"/>
<path d="M17.3161 10.1281C17.0723 9.88437 16.6761 9.88437 16.4323 10.1281L15.1823 11.3781C14.9386 11.6219 14.9386 12.0181 15.1823 12.2619C15.3048 12.3831 15.4648 12.4444 15.6248 12.4444C15.7848 12.4444 15.9448 12.3832 16.0661 12.2619L17.3161 11.0119C17.5598 10.7681 17.5598 10.3719 17.3161 10.1281Z" fill="#39A0ED"/>
<path d="M18.5661 6.37813C18.3223 6.13437 17.9261 6.13437 17.6823 6.37813L16.4323 7.62811C16.1886 7.87186 16.1886 8.26813 16.4323 8.51188C16.5548 8.63311 16.7148 8.6944 16.8748 8.6944C17.0348 8.6944 17.1948 8.63317 17.3161 8.51188L18.5661 7.2619C18.8098 7.01815 18.8098 6.62188 18.5661 6.37813Z" fill="#39A0ED"/>
</svg>
