<svg width="30" height="24" viewBox="0 0 30 24" fill="none" xmlns="http://www.w3.org/2000/svg">
<path d="M30 13.6483C30 12.656 29.457 11.7619 28.5829 11.315C27.6915 10.8591 26.5373 10.6279 25.1524 10.6279H10.0982C9.98982 10.087 9.74965 9.59552 9.38935 9.19503L7.25449 6.82181C6.72621 6.23452 5.96707 5.87792 5.11699 5.8178L4.7335 5.79067C4.53715 5.77655 4.33764 5.80427 4.14615 5.86849V4.61394C4.14615 4.17448 3.96105 3.77763 3.66516 3.49644C3.96521 3.13679 4.14615 2.67437 4.14615 2.17046C4.14615 1.02735 3.21615 0.0974121 2.07311 0.0974121C0.930059 0.0974121 0 1.02741 0 2.17052C0 2.67448 0.180937 3.13685 0.480996 3.49649C0.185098 3.77774 0 4.17454 0 4.614V23.3166C0 23.6401 0.262324 23.9025 0.585938 23.9025H2.6083C2.91053 23.9025 3.16318 23.6727 3.19166 23.3717C3.26145 22.6339 3.65162 20.6075 4.6183 19.6987H6.18727C6.51088 19.6987 6.7732 19.4363 6.7732 19.1128C6.7732 18.7892 6.51088 18.5268 6.18727 18.5268L1.17182 18.5268V13.3684L8.99268 13.3683V14.8951C8.99268 15.7985 9.72762 16.5335 10.6311 16.5335H10.6312H28.3617C28.5189 16.5335 28.6773 16.5107 28.8281 16.4659V18.5268H25.5992C25.5987 18.5268 25.5983 18.5269 25.5977 18.5269H11.3429C11.0193 18.5269 10.757 18.7893 10.757 19.1128C10.757 19.4364 11.0193 19.6988 11.3429 19.6988H25.3817C26.3446 20.605 26.7373 22.6333 26.8084 23.3718C26.8369 23.6727 27.0895 23.9026 27.3918 23.9026H29.4141C29.7377 23.9026 30 23.6402 30 23.3167V13.6483ZM4.14756 7.78433C4.15629 7.53466 4.12207 7.27667 4.32779 7.0931C4.53475 6.90841 4.78301 6.96894 5.03426 6.98675C5.58785 7.02595 6.05432 7.23987 6.3832 7.60556L8.51807 9.97884C8.86412 10.3634 9.03012 10.8996 8.98541 11.4883C8.96824 11.7149 8.97234 11.9158 8.78133 12.0757C8.60678 12.2219 8.41734 12.1946 8.20723 12.1883C7.61707 12.1707 7.1015 11.9491 6.75545 11.5644L4.62059 9.19116C4.27529 8.8072 4.12975 8.29409 4.14756 7.78433ZM1.17188 12.1965V4.614C1.17188 4.40974 1.33805 4.24356 1.5423 4.24356H2.60373C2.80799 4.24356 2.97416 4.40974 2.97416 4.614V12.1964H1.17188V12.1965ZM4.14609 10.4158L5.74793 12.1965H4.14609V10.4158ZM2.07305 1.26935C2.56992 1.26935 2.97422 1.67358 2.97422 2.17052C2.97422 2.66745 2.56998 3.07169 2.07305 3.07169C1.57611 3.07169 1.17188 2.66745 1.17188 2.17052C1.17188 1.67358 1.57611 1.26935 2.07305 1.26935ZM2.09777 22.7307H1.17188V19.6988H3.13664C2.50254 20.7368 2.21578 22.0209 2.09777 22.7307ZM10.6311 15.3617C10.374 15.3617 10.1647 15.1525 10.1647 14.8953L10.1645 11.7998H25.1524C26.35 11.7998 27.3247 11.9877 28.0493 12.3583C28.5297 12.6039 28.8281 13.0982 28.8281 13.6483V14.8931C28.8281 14.8939 28.828 14.8946 28.828 14.8954C28.828 15.1525 28.6188 15.3618 28.3616 15.3618H10.6311V15.3617ZM27.9023 22.7307C27.7842 22.0209 27.4975 20.7369 26.8634 19.6988H28.8281V22.7307H27.9023Z" fill="#39A0ED"/>
</svg>
