<svg width="30" height="30" viewBox="0 0 30 30" fill="none" xmlns="http://www.w3.org/2000/svg">
<path d="M25.6692 16.0149H23.3491C23.5856 16.6624 23.7148 17.3611 23.7148 18.0893V26.8579C23.7148 27.1616 23.662 27.453 23.5658 27.7241H27.4014C28.8342 27.7241 29.9998 26.5584 29.9998 25.1257V20.3455C29.9999 17.9576 28.0571 16.0149 25.6692 16.0149Z" fill="#39A0ED"/>
<path d="M6.28507 18.0893C6.28507 17.361 6.41427 16.6624 6.65076 16.0149H4.33067C1.94274 16.0149 0 17.9576 0 20.3456V25.1257C0 26.5584 1.16561 27.7241 2.5984 27.7241H6.43408C6.33792 27.4529 6.28507 27.1616 6.28507 26.8579V18.0893Z" fill="#39A0ED"/>
<path d="M17.6523 13.7587H12.3483C9.96032 13.7587 8.01758 15.7014 8.01758 18.0893V26.8579C8.01758 27.3362 8.40535 27.724 8.88371 27.724H21.1168C21.5952 27.724 21.983 27.3363 21.983 26.8579V18.0893C21.983 15.7014 20.0402 13.7587 17.6523 13.7587Z" fill="#39A0ED"/>
<path d="M15.0002 2.27576C12.1284 2.27576 9.79199 4.61213 9.79199 7.48399C9.79199 9.43194 10.8671 11.1332 12.4549 12.0264C13.208 12.4501 14.0763 12.6922 15.0002 12.6922C15.9241 12.6922 16.7923 12.4501 17.5454 12.0264C19.1333 11.1332 20.2083 9.43188 20.2083 7.48399C20.2083 4.61219 17.872 2.27576 15.0002 2.27576Z" fill="#39A0ED"/>
<path d="M5.8545 7.13025C3.70674 7.13025 1.95947 8.87752 1.95947 11.0253C1.95947 13.173 3.70674 14.9203 5.8545 14.9203C6.3993 14.9203 6.91809 14.8075 7.38936 14.6046C8.20417 14.2538 8.87601 13.6328 9.29173 12.855C9.58353 12.3091 9.74953 11.6863 9.74953 11.0253C9.74953 8.87758 8.00226 7.13025 5.8545 7.13025Z" fill="#39A0ED"/>
<path d="M24.1455 7.13025C21.9978 7.13025 20.2505 8.87752 20.2505 11.0253C20.2505 11.6863 20.4165 12.3091 20.7083 12.855C21.124 13.6329 21.7958 14.2539 22.6107 14.6046C23.0819 14.8075 23.6007 14.9203 24.1455 14.9203C26.2933 14.9203 28.0405 13.173 28.0405 11.0253C28.0405 8.87752 26.2933 7.13025 24.1455 7.13025Z" fill="#39A0ED"/>
</svg>
