<svg width="30" height="30" viewBox="0 0 30 30" fill="none" xmlns="http://www.w3.org/2000/svg">
<path d="M6.12498 18.8999V16.2012H23.2748V18.8999C23.2748 19.2577 23.4917 19.5815 23.8262 19.7257C23.945 19.776 24.0686 19.8 24.1936 19.8C24.4215 19.8 24.6458 19.7173 24.8196 19.56L29.1072 15.66C29.2934 15.4895 29.3999 15.2509 29.3999 15C29.3999 14.7493 29.2934 14.5115 29.1072 14.3412L24.8196 10.4413C24.5513 10.1976 24.1617 10.1339 23.8262 10.2756C23.4917 10.4184 23.2748 10.7423 23.2748 11.1V13.8011H6.12498V11.1C6.12498 10.7423 5.90807 10.4184 5.57364 10.2743C5.2392 10.1328 4.84846 10.1963 4.58019 10.4399L0.292618 14.3399C0.106445 14.5115 -9.91821e-05 14.7504 -9.91821e-05 15C-9.91821e-05 15.2496 0.106445 15.4895 0.292618 15.66L4.58019 19.56C4.75403 19.7173 4.97833 19.8 5.20623 19.8C5.33116 19.8 5.45476 19.7749 5.57364 19.7257C5.90807 19.5829 6.12498 19.2588 6.12498 18.8999Z" fill="#39A0ED"/>
</svg>
