<svg width="21" height="23" viewBox="0 0 21 23" fill="none" xmlns="http://www.w3.org/2000/svg">
<path d="M20.3488 17.2838L19.6157 13.4049C19.5851 13.2442 19.4781 13.1084 19.3286 13.0417C19.1794 12.9746 19.0067 12.9854 18.8665 13.0697L15.4859 15.1076C15.2879 15.2269 15.1976 15.4663 15.2673 15.6863C15.3368 15.9067 15.5481 16.0502 15.7786 16.0342L17.0991 15.9421C15.8383 17.6365 13.9406 18.332 11.764 18.5102V7.41363H12.851C13.0263 7.54413 13.2418 7.62393 13.4771 7.62393C14.0591 7.62393 14.5313 7.15219 14.5313 6.57006C14.5313 5.98759 14.0591 5.51585 13.4771 5.51585C13.2414 5.51585 13.0259 5.59604 12.8506 5.72654H11.7639V4.20254C12.3826 3.79124 12.792 3.08945 12.792 2.29295C12.792 1.02883 11.7633 0 10.4991 0C9.23496 0 8.20613 1.02883 8.20613 2.29295C8.20613 3.08945 8.61559 3.79124 9.23418 4.20254V5.72659H8.14758C7.97229 5.59609 7.75681 5.5159 7.52114 5.5159C6.93906 5.5159 6.46694 5.98763 6.46694 6.57011C6.46694 7.15219 6.93906 7.62397 7.52114 7.62397C7.75643 7.62397 7.97191 7.54417 8.1472 7.41368H9.23418V18.5103C7.05759 18.332 5.15992 17.6366 3.89919 15.9421L5.21962 16.0342C5.45006 16.0503 5.66148 15.9068 5.73087 15.6864C5.80059 15.4664 5.71038 15.2269 5.51234 15.1076L2.13167 13.0697C1.99144 12.9855 1.81881 12.9747 1.66962 13.0418C1.5201 13.1085 1.41308 13.2442 1.38248 13.405L0.649363 17.2838C0.606461 17.5109 0.72466 17.7376 0.935346 17.8323C1.14603 17.9275 1.394 17.8655 1.53574 17.6828L2.32439 16.6655C3.86631 19.1624 6.29087 21.2529 9.08727 21.7955L10.1455 22.8537C10.3409 23.0488 10.6571 23.0488 10.8522 22.8537L11.9104 21.7955C14.7068 21.2533 17.1317 19.1624 18.6737 16.6655L19.4623 17.6828C19.6041 17.8655 19.852 17.9275 20.0627 17.8323C20.2735 17.7376 20.3917 17.5108 20.3488 17.2838ZM10.4991 1.68699C10.8332 1.68699 11.105 1.95883 11.105 2.29295C11.105 2.62706 10.8332 2.89891 10.4991 2.89891C10.165 2.89891 9.89312 2.62706 9.89312 2.29295C9.89317 1.95883 10.165 1.68699 10.4991 1.68699Z" fill="#39A0ED"/>
</svg>
