<svg width="35" height="35" viewBox="0 0 35 35" fill="none" xmlns="http://www.w3.org/2000/svg">
<path d="M33.9286 30.9538C32.6205 30.9538 31.6717 31.1052 30.9004 31.3096L33.5634 25.9835L18.5715 26.7148V25.305L33.8421 24.5414L18.5714 4.00246V0.357056H16.4285V8.23534L3.92615 26.2075L16.4286 25.4261V26.8193L1.42857 27.551V30.9579L0 30.9538V33.0966H1.0714C2.92988 33.0966 3.79688 33.423 4.80081 33.801C5.8489 34.1956 7.03678 34.6428 9.28532 34.6428C11.5339 34.6428 12.7218 34.1956 13.77 33.8011C14.774 33.4231 15.641 33.0967 17.4995 33.0967C19.3581 33.0967 20.2253 33.4231 21.2294 33.8011C22.2775 34.1956 23.4655 34.6428 25.7141 34.6428C27.9626 34.6428 29.1506 34.1956 30.1987 33.8011C31.2028 33.4231 32.0698 33.0967 33.9286 33.0967H35V30.9538H33.9286ZM18.5714 9.84903L19.2183 11.466C20.4997 14.6699 20.2162 18.214 18.5714 21.1214V9.84903Z" fill="#39A0ED"/>
</svg>
