<svg width="35" height="35" viewBox="0 0 35 35" fill="none" xmlns="http://www.w3.org/2000/svg">
<path d="M20.5078 8.33984C17.1152 8.33984 14.3555 11.0996 14.3555 14.4922C14.3555 17.8848 17.1152 20.6445 20.5078 20.6445C23.9004 20.6445 26.6602 17.8848 26.6602 14.4922C26.6602 11.0996 23.9004 8.33984 20.5078 8.33984ZM21.5332 16.543H19.4824V12.4414H21.5332V16.543Z" fill="#39A0ED"/>
<path d="M28.7109 2.1875C26.4497 2.1875 24.6094 4.02786 24.6094 6.28906C24.6094 8.55026 26.4497 10.3906 28.7109 10.3906C30.9721 10.3906 32.8125 8.55026 32.8125 6.28906C32.8125 4.02786 30.9721 2.1875 28.7109 2.1875Z" fill="#39A0ED"/>
<path d="M19.4824 0C17.7865 0 16.4062 1.38027 16.4062 3.07617C16.4062 4.77207 17.7865 6.15234 19.4824 6.15234C21.1783 6.15234 22.5586 4.77207 22.5586 3.07617C22.5586 1.38027 21.1783 0 19.4824 0Z" fill="#39A0ED"/>
<path d="M29.8122 23.283L24.5151 28.8477C24.0104 28.8477 19.6264 28.8477 14.6973 28.8477V26.7969H23.584C23.584 24.5317 21.7476 22.6953 19.4824 22.6953H14.3557C13.4203 21.4499 11.9311 20.6445 10.2539 20.6445C8.76575 20.6445 7.42554 21.2787 6.48907 22.2913C5.13416 23.7565 3.34694 24.7461 1.35143 24.7461H0V35H25.9755L35 23.7196C33.8077 21.9495 31.2835 21.7372 29.8122 23.283Z" fill="#39A0ED"/>
</svg>
