<svg width="35" height="35" viewBox="0 0 35 35" fill="none" xmlns="http://www.w3.org/2000/svg">
<path d="M17.5 0C7.85047 0 0 7.85075 0 17.5C0 27.1495 7.85047 35 17.5 35C27.1498 35 35 27.1495 35 17.5C35 7.85075 27.1498 0 17.5 0ZM28.8507 14.1907C28.5093 14.2513 27.9297 13.639 27.3973 13.3697C26.8648 13.1005 26.9227 13.4648 26.0648 13.3025C25.2074 13.1399 25.5255 11.8689 26.1199 11.7294C26.5325 11.633 26.7742 11.8385 27.1302 12.2825C27.4229 12.6466 27.9204 12.4862 28.5002 12.56C29.5783 12.6959 29.193 14.1306 28.8507 14.1907ZM20.2901 14.385C20.2906 13.6133 19.8453 12.9938 16.5724 12.9938C16.0994 12.9938 15.78 12.8996 15.8903 12.6218C16.0019 12.3409 16.4616 12.473 17.1191 12.3429C17.777 12.2125 17.592 11.8016 17.5863 11.5539C17.5772 11.1595 17.6637 10.7874 18.5599 11.1286C19.1155 11.3403 19.0835 10.8172 19.4363 10.6637C20.0343 10.403 20.7368 11.0865 21.0976 11.5641C21.458 12.0417 21.7821 13.2708 22.0809 13.3783C22.2531 13.44 22.5786 13.2909 22.7957 12.9464C22.9958 12.6289 21.4525 11.0479 21.7912 10.7874C22.0227 10.6094 22.6083 10.7502 23.0873 12.1899C23.1551 12.3941 23.2259 12.9856 23.2259 13.9281C23.2259 14.6121 23.8036 14.6865 24.064 14.5333C24.3352 14.3734 24.0706 13.2994 24.6295 13.2881C25.076 13.2791 24.9084 13.9967 24.9084 14.5054C24.9084 15.2741 25.814 15.4397 26.2144 15.4397C27.2611 15.4397 27.4232 17.1916 26.0246 17.1916C25.3218 17.1916 24.5163 15.7858 23.3513 15.7858C22.9391 15.7858 22.9983 16.1231 22.6031 16.4277C22.2244 16.7195 21.8011 16.1339 21.894 15.5965C21.9888 15.0517 20.289 15.3239 20.2901 14.385ZM17.5 33.9065C8.45346 33.9065 1.09354 26.5465 1.09354 17.5C1.09354 15.2261 1.55929 13.0591 2.39902 11.0887C2.46874 11.0173 2.53984 10.9613 2.60902 10.9255C2.91244 10.7698 3.02846 10.4865 3.14063 10.2126C3.22937 9.99622 3.32114 9.77244 3.51047 9.54618C3.72626 9.2885 3.88362 9.0639 4.01012 8.88339C4.12228 8.72382 4.23803 8.55874 4.29811 8.52236C4.39402 8.46504 4.50425 8.3537 4.69083 8.16134C4.9226 7.92268 5.2726 7.56193 5.49638 7.48008C5.55949 7.45693 5.59669 7.44618 5.61654 7.44122C5.71051 7.48256 5.84968 7.50488 6.10598 7.45362C6.63787 7.34724 7.0474 7.18437 7.31665 6.73626L7.32492 6.72248C7.3748 6.73874 7.42496 6.75114 7.47043 6.76272C7.51756 6.77457 7.58921 6.79276 7.60768 6.80213C7.67382 6.84594 7.75181 6.86882 7.83394 6.86882C8.27405 6.86882 8.77177 6.16248 8.9137 5.94614C9.0278 5.77224 9.13555 5.60827 9.04185 5.4352C9.03689 5.42638 9.03165 5.41783 9.02587 5.40984C9.28933 5.18331 9.56933 4.7352 9.55114 4.47091C9.5415 4.33063 9.59579 4.02555 9.65531 3.94811C9.71484 3.87067 9.8339 3.7461 9.95984 3.61409C10.0739 3.49449 10.1999 3.36276 10.3187 3.22854C10.371 3.16902 10.511 3.01083 10.4272 2.82508C10.4107 2.78843 10.3856 2.75866 10.357 2.73248C12.5181 1.68303 14.9414 1.09354 17.5 1.09354C21.4828 1.09354 25.1383 2.52138 27.9826 4.89035C27.9374 4.90469 27.8914 4.91764 27.8498 4.94134C27.6842 5.03614 27.6337 5.1574 27.62 5.24256C27.6139 5.28197 27.6139 5.31807 27.6189 5.35252C27.3342 5.2715 26.8395 5.01602 26.457 4.8187C25.8085 4.48441 25.1388 4.13882 24.5807 4.02941C23.7537 3.86764 22.898 4.13689 22.3322 4.31575C22.1437 4.375 21.9659 4.43122 21.878 4.44059L21.7427 4.45299C21.2888 4.4924 20.4436 4.56516 20.3259 5.3087C20.278 5.61268 20.381 5.91142 20.6084 6.12858C20.6946 6.21126 20.7939 6.27657 20.8986 6.3237C20.8732 6.3474 20.8498 6.37303 20.8286 6.40031C20.712 6.55161 20.6726 6.7415 20.72 6.92146C20.7382 6.99228 20.7707 7.06531 20.8052 7.1422C20.8115 7.15654 20.8195 7.1739 20.8275 7.19236C20.421 7.17031 19.9993 7.36654 19.6543 7.52638C19.6182 7.54319 19.5788 7.56138 19.5385 7.57929C19.6019 7.48917 19.6524 7.37535 19.6535 7.23205C19.6557 6.96858 19.49 6.69161 19.1332 6.36008C18.8931 6.13713 18.9 6.12693 18.9551 6.04728C19.1552 5.75736 19.2395 5.49941 19.0017 5.18331C18.8008 4.91709 17.9451 4.84488 17.5965 5.00886C17.365 5.11772 17.2564 5.33295 17.3129 5.57079C17.3206 5.60358 17.3305 5.63583 17.3418 5.66724C17.2751 5.65098 17.1999 5.64575 17.1161 5.66035C16.5561 5.75874 16.1639 6.05941 16.0675 6.46453C16.0038 6.73185 16.0893 6.9989 16.2846 7.14551C16.5564 7.3489 16.8262 7.34283 17.0676 7.25189C16.9902 7.36984 16.9485 7.50268 16.9772 7.63772C16.9954 7.72342 17.0348 7.79535 17.0957 7.85378C17.0334 7.88244 16.9709 7.92929 16.9097 8.00232C16.5704 8.40661 17.0086 8.80236 17.244 9.01539C17.3203 9.08374 17.4421 9.19425 17.4818 9.25516C17.4374 9.4015 17.371 9.61287 17.2702 9.65917C17.2137 9.68535 17.1133 9.66965 16.9877 9.6148C16.8411 9.55059 16.7115 9.46874 16.5864 9.38964C16.1981 9.14409 15.758 8.86575 15.1057 9.43567C14.5443 9.9265 14.46 10.6891 14.4594 11.1C14.4591 11.5596 14.5677 12.1191 14.8108 12.3327L14.8756 12.3894C14.9241 12.4316 14.98 12.4807 15.0186 12.5184C14.9527 12.5678 14.8207 12.6463 14.7193 12.7067C14.3811 12.9084 13.9184 13.1848 13.6533 13.5467C13.4797 13.7837 13.4265 14.0328 13.3796 14.2524C13.311 14.5741 13.2658 14.7865 12.8839 14.9486C12.1461 15.2614 10.9117 15.7853 10.085 17.1872C9.65146 17.9222 9.48307 19.32 9.95213 20.3857C10.2729 21.1152 10.8412 21.5854 11.5955 21.7457C12.1039 21.8535 12.5427 21.9158 12.9296 21.9709C14.1097 22.1387 14.4206 22.2101 14.4688 22.8801C14.5528 24.045 15.3303 24.2013 15.8983 24.3154C16.0399 24.344 16.1739 24.3707 16.2937 24.4093C16.393 24.4416 16.3293 24.8627 16.2951 25.0887C16.2221 25.572 16.1311 26.1734 16.6493 26.3553C16.8648 26.4311 16.9981 26.6055 17.0566 26.8874C17.2134 27.6475 16.7711 28.7256 16.6278 28.8587C15.8666 29.4328 15.7574 30.404 15.9782 31.0632C16.1896 31.694 16.6812 32.0705 17.2939 32.0705C19.697 32.0705 21.7518 30.6936 23.5641 29.4785C24.761 28.6763 25.7944 27.9837 26.6389 27.9033C28.5335 27.723 29.1939 26.9966 29.1834 26.4291C29.1773 26.0959 28.9367 25.8405 28.6124 25.8212C27.9226 25.7804 27.3959 25.5836 27.1685 25.2813C27.0376 25.1071 27.0026 24.8957 27.0616 24.6339C27.806 21.3213 27.0079 19.5421 26.667 18.7818C26.6466 18.7366 26.6254 18.6894 26.6061 18.6451C27.6966 18.8041 27.7081 20.1884 27.6029 22.1087C27.5497 23.0796 27.5037 23.9182 27.7335 24.4504C27.8663 24.7582 28.1904 25.1135 28.9855 25.0619C30.3522 24.9729 32.6644 23.5941 32.9127 22.7211C33.0516 22.2313 32.7958 21.4759 32.3758 21.1364C32.1283 20.9363 31.8423 20.8978 31.592 21.0306C31.4543 21.1039 31.3465 21.1315 31.2883 21.1078C31.2247 21.0821 31.1213 20.9675 30.9918 20.5693C30.8234 20.0509 30.8882 19.8918 30.8821 19.8852C30.8857 19.8847 30.8948 19.8839 30.91 19.885C30.9419 19.931 30.986 20.0404 31.0169 20.1154C31.11 20.346 31.2261 20.6332 31.4983 20.7283C31.6576 20.7842 31.8318 20.76 32.0151 20.6563C32.0958 20.6109 32.1658 20.6012 32.2441 20.6255C32.4174 20.6789 32.6164 20.8975 32.7633 21.1962C32.9237 21.5214 33.1139 21.7504 33.2993 21.913C31.3655 28.8221 25.0173 33.9065 17.5 33.9065Z" fill="#39A0ED"/>
</svg>
