<?xml version="1.0" standalone="yes"?>
<svg xmlns="http://www.w3.org/2000/svg" width="200" height="200">
<path style="fill:#ffffff; stroke:none;" d="M0 0L0 200L200 200L200 0L0 0z"/>
<path style="fill:#c2e2da; stroke:none;" d="M111 93L109 98L110 98L111 98L111 93z"/>
<path style="fill:#96cac2; stroke:none;" d="M111 94L110 95L110 96L111 97L112 97L113 96L113 95L111 94z"/>
<path style="fill:#c2e2da; stroke:none;" d="M106.667 95.3333L107.333 95.6667L106.667 95.3333z"/>
<path style="fill:#79c4ad; stroke:none;" d="M111 95L112 96L111 95z"/>
<path style="fill:#c2e2da; stroke:none;" d="M113 95L113 102L115 104L116 104L116 96L115 96L113 98L113 95z"/>
<path style="fill:#96cac2; stroke:none;" d="M115 95L116 96L115 95z"/>
<path style="fill:#79c4ad; stroke:none;" d="M107 96L110 99L107 96z"/>
<path style="fill:#96cac2; stroke:none;" d="M109 96L110 97L109 96z"/>
<path style="fill:#79c4ad; stroke:none;" d="M113 96L113 98L115 98L115 96L113 96z"/>
<path style="fill:#c2e2da; stroke:none;" d="M96 97L96 98L99 98L96 97z"/>
<path style="fill:#96cac2; stroke:none;" d="M99 97L99 98L102 98L99 97z"/>
<path style="fill:#79c4ad; stroke:none;" d="M111 97L112 98L111 97z"/>
<path style="fill:#1e9d73; stroke:none;" d="M96 98L96 99C102.265 104.562 99.0231 116.806 96 123L105 123L102 121L102 98L96 98z"/>
<path style="fill:#c2e2da; stroke:none;" d="M102 98L103 121L104 121L102 98M106 98L106 102L107 102L106 98z"/>
<path style="fill:#96cac2; stroke:none;" d="M107 98L107 102L108 102L107 98z"/>
<path style="fill:#ffffff; stroke:none;" d="M108 98L109 99L108 98z"/>
<path style="fill:#1e9d73; stroke:none;" d="M109 99L109 101L113 102L113 98L109 99z"/>
<path style="fill:#96cac2; stroke:none;" d="M115 98L116 99L115 98z"/>
<path style="fill:#c2e2da; stroke:none;" d="M83 99L84 100L83 99z"/>
<path style="fill:#96cac2; stroke:none;" d="M84 99L84 100L87 100L84 99z"/>
<path style="fill:#c2e2da; stroke:none;" d="M87.6667 99.3333L88.3333 99.6667L87.6667 99.3333z"/>
<path style="fill:#79c4ad; stroke:none;" d="M96 99L97 100L96 99z"/>
<path style="fill:#c2e2da; stroke:none;" d="M108.333 99.6667L108.667 100.333L108.333 99.6667z"/>
<path style="fill:#79c4ad; stroke:none;" d="M113.333 99.6667L113.667 100.333L113.333 99.6667M115.333 99.6667L115.667 100.333L115.333 99.6667z"/>
<path style="fill:#c2e2da; stroke:none;" d="M116 99L116 101L118 101L118 99L116 99z"/>
<path style="fill:#79c4ad; stroke:none;" d="M81 100L82 101L81 100z"/>
<path style="fill:#1e9d73; stroke:none;" d="M78 117C78.6141 124.7 89.988 125.096 92.3526 117.96C94.7014 110.872 85.1024 111.309 82.9213 106.795C79.5803 99.8796 90.2843 104.918 92 106C91.4599 99.2278 81.2602 97.2693 78.7863 104.108C76.1998 111.258 85.5721 111.327 88.2485 115.403C90.8416 119.352 84.9297 120.603 82.3102 119.363C80.8268 118.66 79.4934 117.702 78 117z"/>
<path style="fill:#79c4ad; stroke:none;" d="M90 100L91 101L90 100z"/>
<path style="fill:#96cac2; stroke:none;" d="M91 100L92 101L91 100z"/>
<path style="fill:#c2e2da; stroke:none;" d="M92 100L93 101L92 100M98 100L97 121L98 121C99.693 115.272 100.336 105.568 98 100z"/>
<path style="fill:#96cac2; stroke:none;" d="M66 101L67 102L66 101z"/>
<path style="fill:#79c4ad; stroke:none;" d="M67 101L66 105L67 105L67 101z"/>
<path style="fill:#1e9d73; stroke:none;" d="M68 101L63 108L67 108C67 111.536 67.5295 129.948 74 120L70 121L69 108L74 108L74 106L68 101z"/>
<path style="fill:#79c4ad; stroke:none;" d="M69 101L69 105L70 105L69 101z"/>
<path style="fill:#c2e2da; stroke:none;" d="M79 101L80 102L79 101z"/>
<path style="fill:#79c4ad; stroke:none;" d="M92 101L93 102L92 101z"/>
<path style="fill:#ffffff; stroke:none;" d="M108 101L109 102L108 101z"/>
<path style="fill:#79c4ad; stroke:none;" d="M109 101L107 104L109 101z"/>
<path style="fill:#96cac2; stroke:none;" d="M115 101L116 102L115 101z"/>
<path style="fill:#79c4ad; stroke:none;" d="M83 102L84 103L83 102z"/>
<path style="fill:#96cac2; stroke:none;" d="M84 102L84 103L88 103L84 102z"/>
<path style="fill:#79c4ad; stroke:none;" d="M88 102L89 103L88 102z"/>
<path style="fill:#96cac2; stroke:none;" d="M92 102L90 106L90 107L92 102z"/>
<path style="fill:#c2e2da; stroke:none;" d="M109 102L109 105L110 105L111 102L109 102z"/>
<path style="fill:#79c4ad; stroke:none;" d="M111 102L112 103L111 102z"/>
<path style="fill:#ffffff; stroke:none;" d="M112 102L113 103L112 102z"/>
<path style="fill:#79c4ad; stroke:none;" d="M113 102L113 104L115 104L115 102L113 102M78 103L79 104L78 103z"/>
<path style="fill:#c2e2da; stroke:none;" d="M82 103L83 104L82 103z"/>
<path style="fill:#79c4ad; stroke:none;" d="M89 103L90 104L89 103z"/>
<path style="fill:#96cac2; stroke:none;" d="M109 103L110 104L109 103M111 103L107 105L107 106L112 106L113 106L111 103z"/>
<path style="fill:#c2e2da; stroke:none;" d="M112 103L113 104L112 103z"/>
<path style="fill:#96cac2; stroke:none;" d="M81 104L82 105L81 104z"/>
<path style="fill:#c2e2da; stroke:none;" d="M89 104L90 105L89 104M106.667 104.333L107.333 104.667L106.667 104.333z"/>
<path style="fill:#ffffff; stroke:none;" d="M108 104L109 105L108 104z"/>
<path style="fill:#79c4ad; stroke:none;" d="M111 104L110 106L112 106L111 104z"/>
<path style="fill:#c2e2da; stroke:none;" d="M113 104L114 105L113 104z"/>
<path style="fill:#96cac2; stroke:none;" d="M115 104L116 105L115 104M17 106L17 107L25 106L17 106z"/>
<path style="fill:#c2e2da; stroke:none;" d="M29 105L30 106L29 105z"/>
<path style="fill:#96cac2; stroke:none;" d="M30 105L31 106L30 105z"/>
<path style="fill:#79c4ad; stroke:none;" d="M31.6667 105.333L32.3333 105.667L31.6667 105.333z"/>
<path style="fill:#c2e2da; stroke:none;" d="M37 105L38 106L37 105z"/>
<path style="fill:#96cac2; stroke:none;" d="M38 105L38 106L45 106L38 105z"/>
<path style="fill:#c2e2da; stroke:none;" d="M51 105L52 106L51 105z"/>
<path style="fill:#79c4ad; stroke:none;" d="M52 105L52 106L57 106L52 105z"/>
<path style="fill:#c2e2da; stroke:none;" d="M57 105L58 106L57 105M64.6667 105.333L65.3333 105.667L64.6667 105.333M70 105L70 106L74 106L70 105M81 105L82 106L81 105z"/>
<path style="fill:#96cac2; stroke:none;" d="M117 106L117 107L125 107L117 106M126 105L127 106L126 105z"/>
<path style="fill:#79c4ad; stroke:none;" d="M127 105L127 106L131 106L127 105z"/>
<path style="fill:#c2e2da; stroke:none;" d="M131 105L132 106L131 105z"/>
<path style="fill:#1e9d73; stroke:none;" d="M18 106C20.406 111.406 20.8689 121.014 27 123L31 110L32 110C32.4523 115.187 33.1103 121.978 39 123L44 106L38 106L38 119L33 106C27.5375 107.77 26.7565 114.859 26 120L25 120L22 108L25 107L18 106z"/>
<path style="fill:#79c4ad; stroke:none;" d="M29 106L30 107L29 106z"/>
<path style="fill:#c2e2da; stroke:none;" d="M33 106L34 107L33 106z"/>
<path style="fill:#79c4ad; stroke:none;" d="M37 106L39 108L37 106M44 106L43 108L44 106z"/>
<path style="fill:#c2e2da; stroke:none;" d="M49 106L48 108L49 106z"/>
<path style="fill:#1e9d73; stroke:none;" d="M61 120C55.03 119.794 52.4333 120.761 49 115L61 114C60.32 107.915 52.5361 101.788 48.179 109.148C42.5791 118.607 52.8969 126.444 61 120z"/>
<path style="fill:#79c4ad; stroke:none;" d="M58 106L59 107L58 106z"/>
<path style="fill:#96cac2; stroke:none;" d="M74.3333 106.667L74.6667 107.333L74.3333 106.667z"/>
<path style="fill:#79c4ad; stroke:none;" d="M81 106L82 107L81 106z"/>
<path style="fill:#c2e2da; stroke:none;" d="M92 106L93 107L92 106z"/>
<path style="fill:#1e9d73; stroke:none;" d="M107 106L107 107C112.497 111.88 109.576 117.723 107 123L115 123L113 106L107 106z"/>
<path style="fill:#c2e2da; stroke:none;" d="M113 106L114 121L115 121L113 106z"/>
<path style="fill:#1e9d73; stroke:none;" d="M118 106L118 107C122.581 111.852 122.83 124.27 118 129L118 130L127 130L127 129L123 123C129.986 122.937 141.079 115.559 133.258 107.742C130.107 104.594 122.122 106.092 118 106z"/>
<path style="fill:#79c4ad; stroke:none;" d="M132 106L133 107L132 106z"/>
<path style="fill:#c2e2da; stroke:none;" d="M17 107L18 108L17 107z"/>
<path style="fill:#79c4ad; stroke:none;" d="M18 107L19 108L18 107M23 107L24 108L23 107z"/>
<path style="fill:#96cac2; stroke:none;" d="M24 107L25 108L24 107M33 107L34 108L33 107M37 107L38 108L37 107M44 107L45 108L44 107z"/>
<path style="fill:#79c4ad; stroke:none;" d="M54 107L55 108L54 107M59 107L60 108L59 107z"/>
<path style="fill:#c2e2da; stroke:none;" d="M82 107L83 108L82 107z"/>
<path style="fill:#79c4ad; stroke:none;" d="M107 107L108 108L107 107z"/>
<path style="fill:#c2e2da; stroke:none;" d="M117 107L118 108L117 107z"/>
<path style="fill:#79c4ad; stroke:none;" d="M118 107L119 108L118 107M19 108L20 109L19 108M22 108L23 109L22 108z"/>
<path style="fill:#c2e2da; stroke:none;" d="M28 108L29 109L28 108z"/>
<path style="fill:#79c4ad; stroke:none;" d="M33 108L34 109L33 108M39.3333 108.667L39.6667 109.333L39.3333 108.667M42 108L43 109L42 108M51 108L50 110L51 108z"/>
<path style="fill:#ffffff; stroke:none;" d="M50 112L57 112C55.4468 107.329 52.2619 108.323 50 112z"/>
<path style="fill:#79c4ad; stroke:none;" d="M56 108L57 109L56 108z"/>
<path style="fill:#96cac2; stroke:none;" d="M60 108L61 109L60 108z"/>
<path style="fill:#79c4ad; stroke:none;" d="M66 108L66 119L67 119L66 108M69 108L69 119L70 119L69 108M78 108L79 109L78 108M83 108L84 109L83 108z"/>
<path style="fill:#c2e2da; stroke:none;" d="M109 108L108 121L109 121L109 108z"/>
<path style="fill:#96cac2; stroke:none;" d="M120 108L120 128L121 128L120 108M125 108L126 109L125 108z"/>
<path style="fill:#ffffff; stroke:none;" d="M124 120C140.225 119.469 125.211 101.27 124.059 114C123.88 115.976 124 118.018 124 120z"/>
<path style="fill:#96cac2; stroke:none;" d="M134 108L135 109L134 108z"/>
<path style="fill:#c2e2da; stroke:none;" d="M19 109L20 110L19 109z"/>
<path style="fill:#96cac2; stroke:none;" d="M28 109L29 110L28 109z"/>
<path style="fill:#c2e2da; stroke:none;" d="M42 109L43 110L42 109z"/>
<path style="fill:#79c4ad; stroke:none;" d="M47 109L48 110L47 109M60 109L61 110L60 109M85 109L86 110L85 109z"/>
<path style="fill:#96cac2; stroke:none;" d="M86 109L87 110L86 109z"/>
<path style="fill:#c2e2da; stroke:none;" d="M124 109L125 110L124 109M23 110L24 111L23 110z"/>
<path style="fill:#79c4ad; stroke:none;" d="M31 110L30 112L31 110z"/>
<path style="fill:#c2e2da; stroke:none;" d="M34 110L35 111L34 110M50 110L51 111L50 110z"/>
<path style="fill:#96cac2; stroke:none;" d="M57.3333 110.667L57.6667 111.333L57.3333 110.667z"/>
<path style="fill:#c2e2da; stroke:none;" d="M79 110L80 111L79 110z"/>
<path style="fill:#79c4ad; stroke:none;" d="M88 110L89 111L88 110M123 110L123 120L124 120L123 110z"/>
<path style="fill:#96cac2; stroke:none;" d="M131 110L132 111L131 110z"/>
<path style="fill:#c2e2da; stroke:none;" d="M135 110L136 111L135 110z"/>
<path style="fill:#96cac2; stroke:none;" d="M23 111L24 112L23 111M31 111L30 113L31 111z"/>
<path style="fill:#79c4ad; stroke:none;" d="M34 111L35 112L34 111z"/>
<path style="fill:#c2e2da; stroke:none;" d="M38 111L39 112L38 111z"/>
<path style="fill:#96cac2; stroke:none;" d="M46 111L47 112L46 111z"/>
<path style="fill:#c2e2da; stroke:none;" d="M61 111L61 114L62 114L61 111z"/>
<path style="fill:#79c4ad; stroke:none;" d="M81 111L82 112L81 111M90 111L91 112L90 111z"/>
<path style="fill:#96cac2; stroke:none;" d="M135 111L135 117L136 117L135 111M20 112L21 113L20 112z"/>
<path style="fill:#79c4ad; stroke:none;" d="M23 112L24 113L23 112z"/>
<path style="fill:#96cac2; stroke:none;" d="M27 112L28 113L27 112z"/>
<path style="fill:#c2e2da; stroke:none;" d="M31 112L32 113L31 112z"/>
<path style="fill:#96cac2; stroke:none;" d="M38 112L39 113L38 112z"/>
<path style="fill:#79c4ad; stroke:none;" d="M41 112L42 113L41 112M46 112L46 117L47 117L46 112M50 112L50 113L57 113L50 112z"/>
<path style="fill:#96cac2; stroke:none;" d="M83 112L84 113L83 112z"/>
<path style="fill:#c2e2da; stroke:none;" d="M20 113L21 114L20 113z"/>
<path style="fill:#79c4ad; stroke:none;" d="M27 113L28 114L27 113M38 113L39 114L38 113z"/>
<path style="fill:#c2e2da; stroke:none;" d="M41 113L42 114L41 113M85 113L86 114L85 113z"/>
<path style="fill:#79c4ad; stroke:none;" d="M86 113L87 114L86 113z"/>
<path style="fill:#96cac2; stroke:none;" d="M92 113L93 114L92 113z"/>
<path style="fill:#79c4ad; stroke:none;" d="M32 114L33 115L32 114z"/>
<path style="fill:#96cac2; stroke:none;" d="M35 114L36 115L35 114z"/>
<path style="fill:#79c4ad; stroke:none;" d="M50 114L50 115L61 115L50 114M88 114L89 115L88 114M21 115L22 116L21 115z"/>
<path style="fill:#c2e2da; stroke:none;" d="M24 115L25 116L24 115M26 115L27 116L26 115z"/>
<path style="fill:#96cac2; stroke:none;" d="M29 115L30 116L29 115M32 115L33 116L32 115z"/>
<path style="fill:#79c4ad; stroke:none;" d="M35 115L36 116L35 115M40 115L41 116L40 115M49 115L50 116L49 115M89 115L90 116L89 115z"/>
<path style="fill:#96cac2; stroke:none;" d="M21 116L22 117L21 116z"/>
<path style="fill:#79c4ad; stroke:none;" d="M24.3333 116.667L24.6667 117.333L24.3333 116.667M26 116L27 117L26 116z"/>
<path style="fill:#c2e2da; stroke:none;" d="M29 116L30 117L29 116M37 116L36 118L37 116z"/>
<path style="fill:#96cac2; stroke:none;" d="M40 116L41 117L40 116z"/>
<path style="fill:#c2e2da; stroke:none;" d="M77 116L77 122L78 122L77 116z"/>
<path style="fill:#79c4ad; stroke:none;" d="M78 116L78 117L81 118L78 116z"/>
<path style="fill:#96cac2; stroke:none;" d="M80 116L81 117L80 116z"/>
<path style="fill:#c2e2da; stroke:none;" d="M89.3333 116.667L89.6667 117.333L89.3333 116.667M93 116L94 117L93 116z"/>
<path style="fill:#79c4ad; stroke:none;" d="M33 117L34 118L33 117z"/>
<path style="fill:#96cac2; stroke:none;" d="M37 117L36 119L37 117z"/>
<path style="fill:#c2e2da; stroke:none;" d="M40 117L41 118L40 117z"/>
<path style="fill:#96cac2; stroke:none;" d="M46 117L47 118L46 117M131 117L132 118L131 117z"/>
<path style="fill:#c2e2da; stroke:none;" d="M25 118L26 119L25 118z"/>
<path style="fill:#79c4ad; stroke:none;" d="M28 118L29 119L28 118z"/>
<path style="fill:#96cac2; stroke:none;" d="M33 118L34 119L33 118z"/>
<path style="fill:#79c4ad; stroke:none;" d="M37 118L38 119L37 118M50 118L51 119L50 118M89 118L90 119L89 118M131 118L132 119L131 118M134 118L135 119L134 118M22 119L23 120L22 119M25 119L26 120L25 119z"/>
<path style="fill:#c2e2da; stroke:none;" d="M28 119L29 120L28 119z"/>
<path style="fill:#79c4ad; stroke:none;" d="M39 119L40 120L39 119M47 119L48 120L47 119z"/>
<path style="fill:#96cac2; stroke:none;" d="M51 119L52 120L51 119z"/>
<path style="fill:#c2e2da; stroke:none;" d="M58 119L59 120L58 119z"/>
<path style="fill:#96cac2; stroke:none;" d="M60 119L61 120L60 119M66.3333 119.667L66.6667 120.333L66.3333 119.667z"/>
<path style="fill:#79c4ad; stroke:none;" d="M88 119L89 120L88 119z"/>
<path style="fill:#96cac2; stroke:none;" d="M92 119L93 120L92 119z"/>
<path style="fill:#79c4ad; stroke:none;" d="M130 119L131 120L130 119z"/>
<path style="fill:#c2e2da; stroke:none;" d="M134 119L135 120L134 119M22 120L23 121L22 120z"/>
<path style="fill:#96cac2; stroke:none;" d="M39 120L40 121L39 120z"/>
<path style="fill:#79c4ad; stroke:none;" d="M52 120L53 121L52 120z"/>
<path style="fill:#96cac2; stroke:none;" d="M53 120L54 121L53 120z"/>
<path style="fill:#c2e2da; stroke:none;" d="M54 120L55 121L54 120z"/>
<path style="fill:#96cac2; stroke:none;" d="M55 120L56 121L55 120z"/>
<path style="fill:#79c4ad; stroke:none;" d="M56 120L57 121L56 120z"/>
<path style="fill:#96cac2; stroke:none;" d="M70 120L71 121L70 120z"/>
<path style="fill:#c2e2da; stroke:none;" d="M71 120L72 121L71 120z"/>
<path style="fill:#79c4ad; stroke:none;" d="M72 120L73 121L72 120z"/>
<path style="fill:#c2e2da; stroke:none;" d="M74 120L75 121L74 120z"/>
<path style="fill:#79c4ad; stroke:none;" d="M83 120L84 121L83 120z"/>
<path style="fill:#96cac2; stroke:none;" d="M84.6667 120.333L85.3333 120.667L84.6667 120.333z"/>
<path style="fill:#79c4ad; stroke:none;" d="M86 120L87 121L86 120M91 120L92 121L91 120M98 120L99 121L98 120M102 120L103 121L102 120M109 120L110 121L109 120M113 120L114 121L113 120M124 120L125 121L124 120z"/>
<path style="fill:#96cac2; stroke:none;" d="M125 120L126 121L125 120z"/>
<path style="fill:#c2e2da; stroke:none;" d="M126.667 120.333L127.333 120.667L126.667 120.333z"/>
<path style="fill:#96cac2; stroke:none;" d="M128 120L129 121L128 120z"/>
<path style="fill:#79c4ad; stroke:none;" d="M133 120L134 121L133 120M27 121L28 122L27 121M34 121L35 122L34 121z"/>
<path style="fill:#c2e2da; stroke:none;" d="M48 121L49 122L48 121z"/>
<path style="fill:#79c4ad; stroke:none;" d="M59 121L60 122L59 121M74 121L75 122L74 121M90 121L91 122L90 121z"/>
<path style="fill:#96cac2; stroke:none;" d="M105.333 121.667L105.667 122.333L105.333 121.667M115.333 121.667L115.667 122.333L115.333 121.667M132 121L133 122L132 121z"/>
<path style="fill:#79c4ad; stroke:none;" d="M23 122L24 123L23 122z"/>
<path style="fill:#c2e2da; stroke:none;" d="M27 122L28 123L27 122M34 122L35 123L34 122z"/>
<path style="fill:#79c4ad; stroke:none;" d="M50 122L51 123L50 122M57 122L58 123L57 122z"/>
<path style="fill:#c2e2da; stroke:none;" d="M58 122L59 123L58 122M67 122L68 123L67 122z"/>
<path style="fill:#96cac2; stroke:none;" d="M73 122L74 123L73 122z"/>
<path style="fill:#c2e2da; stroke:none;" d="M78 122L79 123L78 122z"/>
<path style="fill:#79c4ad; stroke:none;" d="M79 122L80 123L79 122M88 122L89 123L88 122z"/>
<path style="fill:#c2e2da; stroke:none;" d="M89 122L90 123L89 122z"/>
<path style="fill:#79c4ad; stroke:none;" d="M130 122L131 123L130 122z"/>
<path style="fill:#c2e2da; stroke:none;" d="M52 123L52 124L56 124L52 123M69 123L69 124L72 124L69 123M82 123L82 124L87 124L82 123z"/>
<path style="fill:#79c4ad; stroke:none;" d="M123 123L123 128L124 128L123 123z"/>
<path style="fill:#c2e2da; stroke:none;" d="M125 123L125 124L129 124L125 123z"/>
<path style="fill:#96cac2; stroke:none;" d="M118 128L119 129L118 128z"/>
<path style="fill:#79c4ad; stroke:none;" d="M119 128L120 129L119 128M124 128L125 129L124 128z"/>
<path style="fill:#96cac2; stroke:none;" d="M125 128L126 129L125 128z"/>
<path style="fill:#c2e2da; stroke:none;" d="M126 128L127 129L126 128M117 129L118 130L117 129M127 129L128 130L127 129z"/>
<path style="fill:#96cac2; stroke:none;" d="M118 130L118 131L127 131L118 130z"/>
</svg>
