<svg width="65" height="65" viewBox="0 0 65 65" fill="none" xmlns="http://www.w3.org/2000/svg">
<path d="M59.0525 19.7377C60.9771 23.7352 61.9531 28.0292 61.9531 32.5C61.9531 48.7409 48.7398 61.9531 32.5 61.9531C16.2602 61.9531 3.04688 48.7409 3.04688 32.5C3.04688 16.2591 16.2602 3.04688 32.5 3.04688C40.4777 3.04688 47.9477 6.18516 53.5336 11.8828L54.9839 10.4609C49.0141 4.37023 41.0282 1.01562 32.5 1.01562C15.1389 1.01562 1.01562 15.1399 1.01562 32.5C1.01562 49.8601 15.1389 63.9844 32.5 63.9844C49.8611 63.9844 63.9844 49.8601 63.9844 32.5C63.9844 27.7215 62.9413 23.1309 60.8827 18.8561L59.0525 19.7377Z" fill="#589F58"/>
<path d="M60.6402 8.42259C60.2431 8.02548 59.6012 8.02548 59.2041 8.42259L29.4534 38.1733L20.0152 28.7351C19.6181 28.338 18.9762 28.338 18.5791 28.7351L15.5322 31.782C15.1351 32.1791 15.1351 32.8209 15.5322 33.2181L27.0017 44.6875C27.6578 45.3426 28.5281 45.7031 29.4534 45.7031C30.3786 45.7031 31.25 45.3426 31.9051 44.6875L63.687 12.9056C64.0842 12.5084 64.0842 11.8666 63.687 11.4695L60.6402 8.42259ZM30.469 43.2514C29.9246 43.7948 28.9801 43.7937 28.4378 43.2514L17.6863 32.5L19.2971 30.8892L28.7353 40.3274C29.1324 40.7245 29.7743 40.7245 30.1714 40.3274L59.9221 10.5767L61.5329 12.1875L30.469 43.2514Z" fill="#589F58"/>
<path d="M52.4375 48.2229L54.03 49.4823C54.4759 48.9176 54.9024 48.3316 55.2985 47.7394L53.6105 46.6111C53.2449 47.1595 52.8498 47.7008 52.4375 48.2229Z" fill="#589F58"/>
<path d="M59.735 35.7236L57.718 35.49C57.6418 36.1441 57.5372 36.8062 57.4082 37.4583L59.3998 37.8544C59.541 37.1485 59.6527 36.4315 59.735 35.7236Z" fill="#589F58"/>
<path d="M44.8965 54.6639C44.3227 54.9859 43.7245 55.2916 43.1191 55.5699L43.9702 57.4143C44.6233 57.1126 45.2692 56.7836 45.8908 56.4352L44.8965 54.6639Z" fill="#589F58"/>
<path d="M48.2135 52.4458C47.6874 52.8592 47.1441 53.2542 46.5977 53.6199L47.726 55.3078C48.3161 54.9128 48.9031 54.4872 49.4688 54.0413L48.2135 52.4458Z" fill="#589F58"/>
<path d="M41.2751 56.3326C40.6566 56.5612 40.0188 56.7683 39.3789 56.9471L39.9284 58.9032C40.62 58.7092 41.3096 58.4848 41.9799 58.238L41.2751 56.3326Z" fill="#589F58"/>
<path d="M37.437 57.4103C36.7901 57.5382 36.1279 57.6418 35.4688 57.719L35.7023 59.7361C36.4163 59.6528 37.1323 59.5411 37.8321 59.4029L37.437 57.4103Z" fill="#589F58"/>
<path d="M56.3281 41.2943L58.2345 41.9961C58.4833 41.3217 58.7067 40.6331 58.8997 39.9476L56.9436 39.3971C56.7659 40.0319 56.5577 40.6697 56.3281 41.2943Z" fill="#589F58"/>
<path d="M49.7285 51.1509L51.1067 52.6429C51.6338 52.1564 52.1447 51.6445 52.6302 51.1195L51.1402 49.7402C50.6903 50.2257 50.215 50.7 49.7285 51.1509Z" fill="#589F58"/>
<path d="M54.6543 44.911L56.4256 45.9063C56.7729 45.2888 57.102 44.6428 57.4056 43.9878L55.5633 43.1346C55.282 43.742 54.9763 44.3392 54.6543 44.911Z" fill="#589F58"/>
<path d="M59.9225 32.5C59.9225 28.8458 59.2156 25.2972 57.8202 21.9528L55.9453 22.7358C57.2362 25.8304 57.8913 29.1149 57.8913 32.5C57.8913 32.8271 57.8852 33.1531 57.873 33.4771L59.9022 33.5542C59.9164 33.2049 59.9225 32.8535 59.9225 32.5Z" fill="#589F58"/>
<path d="M31.4473 5.09844L31.5245 7.12867C31.8484 7.11547 32.1745 7.10938 32.5015 7.10938C39.0868 7.10938 45.3309 9.62 50.0799 14.1781L51.4866 12.7126C46.3577 7.78984 39.6149 5.07812 32.5015 5.07812C32.148 5.07812 31.7977 5.08523 31.4473 5.09844Z" fill="#589F58"/>
<path d="M16.7866 12.5542C17.3127 12.1408 17.856 11.7457 18.4024 11.3801L17.2741 9.69214C16.684 10.0872 16.097 10.5128 15.5312 10.9586L16.7866 12.5542Z" fill="#589F58"/>
<path d="M7.59375 21.0123L9.43609 21.8654C9.71742 21.258 10.0231 20.6609 10.3451 20.0891L8.57281 19.0938C8.22648 19.7113 7.89641 20.3562 7.59375 21.0123Z" fill="#589F58"/>
<path d="M12.5602 16.7771L10.9677 15.5177C10.5219 16.0824 10.0953 16.6684 9.69922 17.2605L11.3872 18.3889C11.7528 17.8404 12.1479 17.2991 12.5602 16.7771Z" fill="#589F58"/>
<path d="M23.7244 8.66735C24.3429 8.43883 24.9807 8.23165 25.6205 8.0529L25.0711 6.0968C24.3795 6.29079 23.6898 6.51524 23.0195 6.76204L23.7244 8.66735Z" fill="#589F58"/>
<path d="M27.563 7.58982C28.21 7.46185 28.8722 7.35826 29.5313 7.28107L29.2977 5.26404C28.5837 5.34732 27.8677 5.45904 27.168 5.59716L27.563 7.58982Z" fill="#589F58"/>
<path d="M20.1037 10.336C20.6775 10.0141 21.2757 9.70835 21.881 9.43007L21.0299 7.58569C20.3769 7.88733 19.7309 8.2164 19.1094 8.56476L20.1037 10.336Z" fill="#589F58"/>
<path d="M6.09961 25.0514L8.0557 25.6019C8.23445 24.9681 8.44164 24.3303 8.67117 23.7057L6.76484 23.0039C6.51602 23.6773 6.29258 24.3669 6.09961 25.0514Z" fill="#589F58"/>
<path d="M13.8926 12.3571C13.3655 12.8435 12.8546 13.3554 12.3691 13.8805L13.8591 15.2597C14.309 14.7742 14.7843 14.2999 15.2718 13.849L13.8926 12.3571Z" fill="#589F58"/>
<path d="M5.26562 29.2764L7.28266 29.51C7.35883 28.8559 7.46344 28.1938 7.59242 27.5417L5.60078 27.1456C5.45961 27.8515 5.34789 28.5685 5.26562 29.2764Z" fill="#589F58"/>
<path d="M5.07812 32.5C5.07812 47.6206 17.3794 59.9219 32.5 59.9219C32.8534 59.9219 33.2038 59.9148 33.5542 59.9016L33.477 57.8713C33.153 57.8846 32.827 57.8906 32.5 57.8906C18.4996 57.8906 7.10938 46.5004 7.10938 32.5C7.10938 32.173 7.11547 31.847 7.12766 31.523L5.09844 31.4458C5.08422 31.7952 5.07812 32.1466 5.07812 32.5Z" fill="#589F58"/>
</svg>
